<?xml version="1.0" standalone="no"?>
<!DOCTYPE svg PUBLIC "-//W3C//DTD SVG 1.1//EN" "http://www.w3.org/Graphics/SVG/1.1/DTD/svg11.dtd" >
<svg>
<metadata>
Created by FontForge 20090622 at Sun Aug  2 14:54:39 2015
 By deploy user
&#194;&#169;2012 Kai Bernau and Susana Carvalho with Christian Schwartz under exclusive license to Schwartzco Inc./Commercial Type. All rights reserved.
</metadata>
<defs>
<font id="AtlasTypewriterThin" horiz-adv-x="640" >
  <font-face 
    font-family="Atlas Typewriter Thin"
    font-weight="250"
    font-stretch="normal"
    units-per-em="1000"
    panose-1="2 0 0 0 0 0 0 0 0 0"
    ascent="812"
    descent="-188"
    x-height="522"
    cap-height="765"
    bbox="9 -215 1701 1194"
    underline-thickness="50"
    underline-position="-50"
    unicode-range="U+000D-U+FB02"
  />
<missing-glyph horiz-adv-x="500" 
 />
    <glyph glyph-name=".notdef" horiz-adv-x="500" 
 />
    <glyph glyph-name=".null" horiz-adv-x="0" 
 />
    <glyph glyph-name="nonmarkingreturn" horiz-adv-x="333" 
 />
    <glyph glyph-name="NULL" horiz-adv-x="0" 
 />
    <glyph glyph-name="NULL" horiz-adv-x="0" 
 />
    <glyph glyph-name="CR" unicode="&#xd;" 
 />
    <glyph glyph-name="space" unicode=" " 
 />
    <glyph glyph-name="exclam" unicode="!" 
d="M292 788h56l-7 -580h-42zM274 0v99h92v-99h-92z" />
    <glyph glyph-name="quotedbl" unicode="&#x22;" 
d="M362 765h86l-16 -253h-54zM193 765h86l-16 -253h-54z" />
    <glyph glyph-name="numbersign" unicode="#" 
d="M413 533h-164l-27 -179h165zM186 99h-45l31 217h-111v38h117l26 179h-111v40h117l29 192h44l-29 -192h164l29 192h43l-28 -192h119v-40h-124l-27 -179h119v-38h-124l-32 -217h-43l32 217h-165z" />
    <glyph glyph-name="dollar" unicode="$" 
d="M295 707q-77 -6 -116.5 -46t-39.5 -107q0 -65 33 -100.5t102 -46.5l21 -3v303zM345 38q83 8 123.5 54t40.5 116q0 54 -30 87.5t-103 44.5l-37 6v-308h6zM295 -116v110q-108 6 -164.5 67t-63.5 150h49q7 -70 50.5 -118.5t128.5 -54.5v315l-28 5q-181 29 -181 196
q0 84 55.5 137t153.5 59v98h44v-98q96 -5 150 -59t61 -150h-52q-15 156 -159 166v-310l50 -8q173 -26 173 -181q0 -89 -57 -148t-166 -65v-111h-44z" />
    <glyph glyph-name="percent" unicode="%" 
d="M538 774h52l-485 -774h-52zM30 603q0 76 41.5 122t104.5 46q64 0 105.5 -45.5t41.5 -122.5q0 -76 -41.5 -122.5t-105.5 -46.5t-105 46.5t-41 122.5zM176 733q-42 0 -70.5 -34t-28.5 -97q0 -62 28.5 -95.5t70.5 -33.5q41 0 70.5 34t29.5 95q0 62 -29.5 96.5t-70.5 34.5z
M464 -6q-64 0 -105 46.5t-41 122.5t41.5 122t104.5 46q64 0 105.5 -45.5t41.5 -122.5q0 -76 -41.5 -122.5t-105.5 -46.5zM464 33q41 0 70.5 34t29.5 95q0 62 -29.5 96.5t-70.5 34.5q-42 0 -70.5 -34t-28.5 -97q0 -62 28.5 -95.5t70.5 -33.5z" />
    <glyph glyph-name="ampersand" unicode="&#x26;" 
d="M171 619q0 -46 17.5 -81.5t65.5 -96.5q84 62 114.5 101t30.5 90q0 48 -27 80t-83 32q-53 0 -85.5 -35.5t-32.5 -89.5zM234 377q-76 -57 -105 -94.5t-29 -94.5q0 -44 16.5 -77.5t43 -51t54 -25.5t55.5 -8q117 0 175 78l-204 277zM589 0q-39 0 -63.5 13t-55.5 55
q-71 -84 -201 -84q-101 0 -161 55t-60 142q0 68 34 116.5t131 117.5q-3 5 -21 28.5t-21.5 29l-16 24.5t-15.5 28t-9.5 25.5t-8.5 32t-2 32.5q0 76 48 124t124 48t116.5 -43.5t40.5 -105.5q0 -66 -36 -113t-132 -120l190 -257q35 76 48 234h45q-12 -180 -64 -272l7 -10
q31 -41 45 -48.5t62 -7.5v-44h-24z" />
    <glyph glyph-name="quotesingle" unicode="'" 
d="M277 765h86l-16 -253h-54z" />
    <glyph glyph-name="parenleft" unicode="(" 
d="M430 -130q-99 71 -161.5 193.5t-62.5 265.5q0 144 62 266t162 193h65q-112 -86 -173.5 -196t-61.5 -263t61.5 -263t173.5 -196h-65z" />
    <glyph glyph-name="parenright" unicode=")" 
d="M210 788q100 -73 162 -194.5t62 -264.5q0 -144 -62 -266t-162 -193h-65q112 86 173.5 196t61.5 263t-61.5 263t-173.5 196h65z" />
    <glyph glyph-name="asterisk" unicode="*" 
d="M320 482l-135 -194l-45 32l148 182v2l-207 70l20 55l199 -91l3 2l-11 225h58l-11 -224l1 -1l199 87l18 -51l-205 -71v-2l148 -184l-46 -33l-132 196h-2z" />
    <glyph glyph-name="plus" unicode="+" 
d="M342 135h-45v200h-203v45h203v199h45v-199h204v-45h-204v-200z" />
    <glyph glyph-name="comma" unicode="," 
d="M246 -131l51 234h87l-85 -234h-53z" />
    <glyph glyph-name="hyphen" unicode="-" 
d="M171 362h298v-51h-298v51z" />
    <glyph glyph-name="period" unicode="." 
d="M274 99h92v-99h-92v99z" />
    <glyph glyph-name="slash" unicode="/" 
d="M524 788h52l-484 -918h-52z" />
    <glyph glyph-name="zero" unicode="0" 
d="M66 368q0 193 66.5 288.5t187.5 95.5q120 0 187 -96t67 -288t-67 -288t-187 -96q-121 0 -187.5 95.5t-66.5 288.5zM320 28q200 0 200 340t-200 340t-200 -340t200 -340z" />
    <glyph glyph-name="one" unicode="1" 
d="M118 0v42h189v530h-168v44h59q28 0 40.5 0.5t27 5t23.5 13.5q10 10 15 26.5t6.5 31t3.5 51.5h45v-702h183v-42h-424z" />
    <glyph glyph-name="two" unicode="2" 
d="M107 509q-2 117 63.5 180t164.5 63q107 0 165 -58t58 -142q0 -72 -31.5 -125.5t-109.5 -127.5l-152 -146l-84 -79q-5 -5 -29 -26v-4h422v-44h-487v49l271 260l55 54t38.5 42.5t32 46t14.5 43t7 55.5q0 72 -45 114.5t-123 42.5t-128.5 -49t-50.5 -149h-51z" />
    <glyph glyph-name="three" unicode="3" 
d="M260 355v45h67q78 0 119.5 47t41.5 111q0 69 -43 109t-121 40q-160 0 -166 -173h-52q-2 97 55.5 157.5t164.5 60.5q95 0 155 -51t60 -138q0 -68 -35.5 -115.5t-94.5 -65.5v-3q71 -15 110.5 -60.5t39.5 -120.5q0 -91 -66.5 -152t-170.5 -61q-121 0 -179 62t-62 156h52
q8 -87 53.5 -130t137.5 -43q80 0 130.5 45t50.5 120q0 82 -49.5 121t-126.5 39h-71z" />
    <glyph glyph-name="four" unicode="4" 
d="M414 238v446h-5l-16 -32q-4 -6 -11 -19.5l-14 -26t-14 -22.5l-237 -346h297zM465 193v-193h-51v193h-352v43l344 505h59v-503h108v-45h-108z" />
    <glyph glyph-name="five" unicode="5" 
d="M120 203q10 -85 59.5 -129t129.5 -44q35 0 67 9.5t62.5 31t49 63.5t18.5 100q0 100 -52 149t-132 49q-121 0 -166 -77h-54l26 386h396v-48h-353l-20 -285h3q52 70 173 70q98 0 165 -61.5t67 -177.5q0 -122 -70 -188t-180 -66q-113 0 -174 63.5t-65 154.5h50z" />
    <glyph glyph-name="six" unicode="6" 
d="M499 592q-10 47 -48 82.5t-109 35.5q-212 0 -212 -371h3q60 134 205 134q101 0 167.5 -61.5t66.5 -182.5q0 -105 -64.5 -174.5t-176.5 -69.5q-252 0 -252 348q0 213 70 316t193 103q95 0 146.5 -48.5t58.5 -111.5h-48zM332 27q82 0 135.5 54.5t53.5 144.5
q0 100 -51 151.5t-139 51.5q-86 0 -136.5 -52.5t-50.5 -140.5q0 -91 50.5 -150t137.5 -59z" />
    <glyph glyph-name="seven" unicode="7" 
d="M504 695h-426v46h482v-37l-336 -704h-53z" />
    <glyph glyph-name="eight" unicode="8" 
d="M101 561q0 81 58.5 136t159.5 55q100 0 158 -55t58 -136q0 -72 -36.5 -115t-93.5 -59v-5q58 -10 106 -58t48 -134q0 -94 -64.5 -150t-175.5 -56q-113 0 -176.5 55t-63.5 151q0 46 16 83t41 58.5t49.5 33.5t48.5 17v5q-56 13 -94.5 57.5t-38.5 116.5zM319 710
q-71 0 -119 -38t-48 -115q0 -75 48.5 -113t118.5 -38q68 0 116.5 38t48.5 113q0 76 -48.5 114.5t-116.5 38.5zM319 26q85 0 136 40.5t51 125.5t-53 127t-134 42t-134 -42t-53 -127t51 -125.5t136 -40.5z" />
    <glyph glyph-name="nine" unicode="9" 
d="M313 707q-73 0 -126.5 -49t-53.5 -144q0 -91 51 -141.5t130 -50.5t130 52.5t51 139.5q0 89 -51 141t-131 52zM140 155q28 -129 161 -129q114 0 159 86.5t49 294.5h-4q-23 -61 -75 -95.5t-120 -34.5q-103 0 -166 61t-63 177q0 104 64.5 169.5t167.5 65.5q113 0 178 -80
t65 -246q0 -239 -61.5 -339.5t-194.5 -100.5q-86 0 -141.5 44.5t-69.5 126.5h51z" />
    <glyph glyph-name="colon" unicode=":" 
d="M274 392v99h92v-99h-92zM274 0v99h92v-99h-92z" />
    <glyph glyph-name="semicolon" unicode=";" 
d="M273 392v99h92v-99h-92zM218 -131l51 234h87l-85 -234h-53z" />
    <glyph glyph-name="less" unicode="&#x3c;" 
d="M92 308v45l452 218v-53l-395 -187l395 -186v-53z" />
    <glyph glyph-name="equal" unicode="=" 
d="M94 472h452v-47h-452v47zM94 243v47h452v-47h-452z" />
    <glyph glyph-name="greater" unicode="&#x3e;" 
d="M548 342v-43l-452 -218v52l395 187l-395 186v52z" />
    <glyph glyph-name="question" unicode="?" 
d="M488 606q0 71 -44.5 109t-125.5 38q-82 0 -131.5 -53.5t-47.5 -145.5h-49q-4 113 62 178t170 65q108 0 163.5 -53.5t55.5 -131.5q0 -68 -25.5 -110.5t-81.5 -93.5l-32 -30q-43 -41 -53 -62t-10 -81v-27h-48v26q0 76 13 104.5t68 75.5l42 37q74 64 74 155zM270 0v99h92
v-99h-92z" />
    <glyph glyph-name="at" unicode="@" 
d="M349 -124q-147 0 -217 91.5t-70 278.5v66q0 147 44 239q63 131 228 131q127 0 185 -80t58 -216v-302h-44v71h-7q-43 -82 -138 -82q-69 0 -114.5 48.5t-45.5 151.5q0 98 44.5 150.5t123.5 52.5q84 0 128 -70h6q-3 50 -13 88t-30.5 73t-59.5 53.5t-95 18.5
q-130 0 -178 -100q-44 -87 -44 -230v-41q0 -82 10.5 -141.5t37 -108.5t76 -74t121.5 -25q49 0 114 19v-43q-56 -19 -120 -19zM394 120q57 0 94.5 36.5t37.5 92.5v42q0 63 -35.5 101t-87.5 38q-120 0 -120 -154q0 -156 111 -156z" />
    <glyph glyph-name="A" unicode="A" 
d="M312 710q0 -1 -1.5 -9t-4 -18l-6.5 -26l-8 -31l-94 -314h238l-95 315q-9 31 -15 59q-4 20 -5 24h-9zM449 267h-265l-82 -267h-53l234 765h70l233 -765h-58z" />
    <glyph glyph-name="B" unicode="B" 
d="M95 0v765h246q95 0 156 -46t61 -134q0 -72 -38 -118.5t-107 -57.5v-2q78 -12 122 -63t44 -123q0 -114 -73 -167.5t-196 -53.5h-215zM334 432q169 0 169 143q0 70 -44.5 106.5t-117.5 36.5h-192v-286h185zM305 47q218 0 218 169q0 82 -52.5 125.5t-136.5 43.5h-185v-338
h156z" />
    <glyph glyph-name="C" unicode="C" 
d="M518 552q-7 76 -51 128.5t-131 52.5q-51 0 -88 -17t-61 -46t-38 -75t-19.5 -97.5t-5.5 -118.5q0 -351 215 -351q81 0 126.5 53.5t52.5 127.5h53q-10 -104 -74.5 -164.5t-162.5 -60.5q-267 0 -267 395q0 202 65.5 300t203.5 98q99 0 163.5 -60.5t72.5 -164.5h-54z" />
    <glyph glyph-name="D" unicode="D" 
d="M80 765h189q63 0 119 -22.5t101.5 -67t72.5 -119.5t27 -171q0 -191 -92 -288t-225 -97h-192v765zM262 47q55 0 100.5 16t85 52t62 104t22.5 163q0 88 -23 154.5t-61.5 105t-85 57.5t-98.5 19h-130v-671h128z" />
    <glyph glyph-name="E" unicode="E" 
d="M106 765h437v-47h-383v-302h343v-46h-343v-323h386v-47h-440v765z" />
    <glyph glyph-name="F" unicode="F" 
d="M179 0h-54v765h440v-47h-386v-332h348v-46h-348v-340z" />
    <glyph glyph-name="G" unicode="G" 
d="M344 732q-112 0 -165 -89t-53 -269q0 -183 47.5 -265t159.5 -82q86 0 139 68t53 169v59h-192v48h244v-371h-49v129h-3q-17 -61 -69 -103t-128 -42q-63 0 -108.5 19.5t-80.5 64t-52 122t-17 189.5q0 203 72 300t202 97q103 0 161.5 -61.5t64.5 -153.5h-52q-6 77 -49.5 124
t-124.5 47z" />
    <glyph glyph-name="H" unicode="H" 
d="M139 0h-54v765h54v-349h362v349h54v-765h-54v370h-362v-370z" />
    <glyph glyph-name="I" unicode="I" 
d="M347 44h183v-44h-420v44h183v677h-183v44h420v-44h-183v-677z" />
    <glyph glyph-name="J" unicode="J" 
d="M263 -8q-94 0 -147 20v50q69 -21 147 -21q87 0 130 42.5t43 144.5v491h-276v46h330v-545q0 -116 -61 -172t-166 -56z" />
    <glyph glyph-name="K" unicode="K" 
d="M161 0h-54v765h54v-432l351 432h66l-266 -326l303 -439h-66l-275 400l-113 -139v-261z" />
    <glyph glyph-name="L" unicode="L" 
d="M133 765h54v-718h397v-47h-451v765z" />
    <glyph glyph-name="M" unicode="M" 
d="M85 765h78l134 -427q11 -34 15 -57l5 -25h8l5 25q7 35 14 56l133 428h78v-765h-52v692h-10q-2 -6 -4.5 -18l-3.5 -17q-8 -33 -20 -74l-124 -396h-44l-124 395q-7 22 -20 75l-3.5 17t-4.5 18h-9v-692h-51v765z" />
    <glyph glyph-name="N" unicode="N" 
d="M84 765h77l300 -613q9 -18 18.5 -42.5t10.5 -27.5q6 -18 8 -25h6v708h52v-765h-77l-290 592q-22 42 -35 80l-7.5 21t-5.5 15h-5v-708h-52v765z" />
    <glyph glyph-name="O" unicode="O" 
d="M59 380q0 396 262 396q129 0 194.5 -91.5t65.5 -304.5q0 -396 -262 -396q-131 0 -195.5 91.5t-64.5 304.5zM320 27q105 0 154.5 83.5t49.5 269.5q0 193 -47 273t-157 80q-103 0 -153.5 -83.5t-50.5 -269.5t48 -269.5t156 -83.5z" />
    <glyph glyph-name="P" unicode="P" 
d="M154 313v-313h-54v765h226q122 0 186.5 -59t64.5 -161q0 -106 -64.5 -169t-186.5 -63h-172zM330 358q85 0 139 45.5t54 139.5q0 85 -50.5 131t-142.5 46h-176v-362h176z" />
    <glyph glyph-name="Q" unicode="Q" 
d="M463 26q93 -27 137 -119l-51 -25q-24 54 -59 81.5t-72 27.5q-12 0 -44.5 -3t-54.5 -3q-131 0 -195.5 91t-64.5 304q0 396 262 396q129 0 194.5 -91.5t65.5 -304.5q0 -266 -118 -350v-4zM320 733q-103 0 -153.5 -83.5t-50.5 -269.5t48 -269.5t156 -83.5q105 0 154.5 83.5
t49.5 269.5q0 193 -47 273t-157 80z" />
    <glyph glyph-name="R" unicode="R" 
d="M339 372q82 0 135 45t53 136q0 80 -49 122.5t-143 42.5h-191v-346h195zM353 327h-209v-327h-54v765h241q94 0 153 -33q97 -54 97 -178q0 -88 -46 -143t-126 -74v-2l181 -335h-61z" />
    <glyph glyph-name="S" unicode="S" 
d="M503 562q-15 169 -176 169q-80 0 -129.5 -39.5t-49.5 -116.5q0 -67 32 -98.5t103 -48.5l114 -27q95 -22 135.5 -67t40.5 -130q0 -96 -67.5 -157t-189.5 -61q-114 0 -173.5 61t-72.5 162h49q24 -180 204 -180q98 0 147 49.5t49 121.5q0 65 -29.5 99t-104.5 52l-115 27
q-94 21 -134.5 68.5t-40.5 128.5q0 94 65 147.5t167 53.5q107 0 164 -56t64 -158h-52z" />
    <glyph glyph-name="T" unicode="T" 
d="M599 719h-252v-719h-54v719h-252v46h558v-46z" />
    <glyph glyph-name="U" unicode="U" 
d="M79 765h55v-519q0 -106 43 -158.5t146 -52.5q102 0 143.5 52.5t41.5 158.5v519h53v-526q0 -135 -62 -194.5t-179 -59.5q-118 0 -179.5 60t-61.5 195v525z" />
    <glyph glyph-name="V" unicode="V" 
d="M354 0h-70l-233 765h55l188 -625l16 -59q4 -13 6 -24h9q1 11 6 24l4 15.5l6 22.5l6 22l189 624h52z" />
    <glyph glyph-name="W" unicode="W" 
d="M138 0l-97 765h49l88 -701h4q2 12 3 19l3 18t3 17l101 487h60l100 -488q4 -16 6 -35q0 -3 0.5 -9t1.5 -9h5l86 701h47l-96 -765h-73l-95 469q-3 12 -5.5 31.5t-3.5 24.5q-2 16 -2 23h-6q0 -7 -2 -23q-1 -7 -4 -26t-5 -30l-95 -469h-73z" />
    <glyph glyph-name="X" unicode="X" 
d="M286 386l-221 379h61l189 -336h4l189 336h56l-219 -374l245 -391h-60l-212 348h-3l-210 -348h-55z" />
    <glyph glyph-name="Y" unicode="Y" 
d="M294 345l-248 420h61l214 -375h1l215 375h58l-247 -417v-348h-54v345z" />
    <glyph glyph-name="Z" unicode="Z" 
d="M76 765h504v-42l-456 -678h461v-45h-523v42l456 678h-442v45z" />
    <glyph glyph-name="bracketleft" unicode="[" 
d="M224 788h239v-41h-187v-836h187v-41h-239v918z" />
    <glyph glyph-name="backslash" unicode="\" 
d="M64 788h54l482 -918h-54z" />
    <glyph glyph-name="bracketright" unicode="]" 
d="M416 -130h-239v41h187v836h-187v41h239v-918z" />
    <glyph glyph-name="asciicircum" unicode="^" 
d="M531 427h-58l-152 290h-1l-156 -291h-55l187 339h51z" />
    <glyph glyph-name="underscore" unicode="_" 
d="M100 -142h440v-46h-440v46z" />
    <glyph glyph-name="grave" unicode="`" 
d="M341 609l-104 179h78l70 -179h-44z" />
    <glyph glyph-name="a" unicode="a" 
d="M151 138q0 -50 33 -76.5t88 -26.5q71 0 123.5 53.5t52.5 144.5v31q-124 -9 -176 -17t-75 -25q-46 -30 -46 -84zM448 105q-22 -54 -70.5 -83.5t-113.5 -29.5q-76 0 -121.5 38.5t-45.5 106.5q0 81 70 122q37 20 101 30.5t181 17.5v19q0 41 -4.5 67t-18 50t-42.5 35.5
t-75 11.5q-64 0 -99 -29.5t-42 -75.5h-50q6 62 56 104.5t134 44.5q61 0 101 -17t58.5 -48.5t25 -63t6.5 -74.5v-234q0 -30 10.5 -42t36.5 -12h20v-43h-21q-54 0 -75 25t-20 80h-2z" />
    <glyph glyph-name="b" unicode="b" 
d="M100 788h53v-358h1q54 105 187 105q94 0 158 -66.5t64 -207.5q0 -134 -67 -204t-169 -70q-65 0 -110.5 31.5t-65.5 75.5h-2v-94h-49v788zM328 31q88 0 133.5 61.5t45.5 168.5q0 103 -41.5 166.5t-133.5 63.5q-87 0 -133 -52.5t-46 -124.5v-103q0 -71 45 -125.5t130 -54.5
z" />
    <glyph glyph-name="c" unicode="c" 
d="M492 386q-7 43 -45 74t-103 31q-86 0 -135.5 -59.5t-49.5 -169.5q0 -231 180 -231q130 0 153 122h53q-14 -82 -69 -124t-139 -42q-115 0 -174.5 71.5t-59.5 197.5q0 123 63 201.5t176 78.5q76 0 134 -37t69 -113h-53z" />
    <glyph glyph-name="d" unicode="d" 
d="M490 314q0 71 -46 124t-126 53q-90 0 -136.5 -63t-46.5 -165q0 -109 44.5 -170.5t133.5 -61.5q87 0 132 54.5t45 125.5v103zM542 0h-49v94h-3q-52 -107 -176 -107q-42 0 -80.5 13t-74.5 42.5t-57.5 85t-21.5 131.5q0 131 62.5 203.5t171.5 72.5q61 0 106.5 -27.5
t66.5 -77.5h2v358h53v-788z" />
    <glyph glyph-name="e" unicode="e" 
d="M492 296q0 33 -6 63t-22 62t-49.5 51t-81.5 19q-84 0 -130.5 -54t-52.5 -145h342v4zM535 125q-17 -60 -70 -99t-131 -39q-237 0 -237 269q0 125 61.5 202t174.5 77q57 0 100 -21t66 -57t34 -77t11 -87v-42l-395 -1q5 -219 187 -219q35 0 63.5 10.5t45.5 27t26.5 30
t14.5 26.5h49z" />
    <glyph glyph-name="f" unicode="f" 
d="M335 0h-53v479h-197v43h197v111q0 74 42 112t118 38q62 0 111 -15v-45q-53 15 -111 15q-57 0 -82 -24t-25 -85v-107h218v-43h-218v-479z" />
    <glyph glyph-name="g" unicode="g" 
d="M492 311q0 71 -45 125.5t-133 54.5t-135 -62t-47 -161q0 -101 44 -162.5t137 -61.5q85 0 132 53t47 125v89zM322 -199q-98 0 -151 38t-66 103h53q24 -98 164 -98q72 0 121.5 41t49.5 134v86h-3q-55 -105 -190 -105q-39 0 -76 13.5t-71 43t-55 84t-21 127.5
q0 128 65.5 197.5t171.5 69.5q67 0 113 -31.5t67 -75.5h2v94h49v-494q0 -113 -61.5 -170t-161.5 -57z" />
    <glyph glyph-name="h" unicode="h" 
d="M473 0v342q0 68 -28 105q-31 42 -102 42q-84 0 -127 -54.5t-43 -130.5v-304h-53v788h53v-362h2q24 53 64.5 81t111.5 28q175 0 175 -197v-338h-53z" />
    <glyph glyph-name="i" unicode="i" 
d="M277 739h92v-99h-92v99zM105 0v43h198v435h-172v44h225v-479h203v-43h-454z" />
    <glyph glyph-name="j" unicode="j" 
d="M332 640v99h92v-99h-92zM251 -195q-59 0 -108 15v47q53 -15 108 -15q57 0 82 24t25 85v518h-215v43h268v-567q0 -74 -42 -112t-118 -38z" />
    <glyph glyph-name="k" unicode="k" 
d="M202 0h-53v788h53v-546l271 280h65l-191 -198l230 -324h-63l-205 286l-107 -110v-176z" />
    <glyph glyph-name="l" unicode="l" 
d="M92 0v43h201v700h-164v45h217v-745h203v-43h-457z" />
    <glyph glyph-name="m" unicode="m" 
d="M70 522h44v-80h2q12 43 41.5 68t74.5 25q46 0 71.5 -27.5t31.5 -72.5h2q25 100 118 100q114 0 114 -146v-389h-53v377q0 57 -16.5 84.5t-57.5 27.5q-48 0 -72 -44.5t-24 -112.5v-332h-53v379q0 56 -17 83t-56 27q-49 0 -73 -44.5t-24 -111.5v-333h-53v522z" />
    <glyph glyph-name="n" unicode="n" 
d="M473 342q0 68 -28 105q-31 42 -102 42q-84 0 -127 -54.5t-43 -130.5v-304h-53v522h49v-96h2q27 52 68 80.5t112 28.5q175 0 175 -197v-338h-53v342z" />
    <glyph glyph-name="o" unicode="o" 
d="M320 -13q-112 0 -173 74.5t-61 199.5t61 199.5t173 74.5t173 -74.5t61 -199.5t-61 -199.5t-173 -74.5zM320 492q-88 0 -134.5 -62t-46.5 -169q0 -108 45.5 -169.5t135.5 -61.5q88 0 134.5 62t46.5 169t-46.5 169t-134.5 62z" />
    <glyph glyph-name="p" unicode="p" 
d="M153 216q0 -74 44 -129.5t130 -55.5q87 0 133.5 63.5t46.5 171.5q0 101 -41.5 163t-133.5 62q-86 0 -132.5 -54t-46.5 -130v-91zM100 522h49v-98h2q57 111 190 111q44 0 82 -14t70.5 -44t51 -84t18.5 -127q0 -135 -68.5 -207t-168.5 -72q-62 0 -108 32.5t-62 75.5h-3
v-283h-53v710z" />
    <glyph glyph-name="q" unicode="q" 
d="M542 -188h-53v278h-3q-21 -44 -64.5 -73.5t-107.5 -29.5q-42 0 -80.5 13t-74.5 42.5t-57.5 85t-21.5 131.5q0 131 62.5 203.5t171.5 72.5q62 0 109 -27.5t68 -80.5h2v95h49v-710zM313 31q87 0 132 54.5t45 125.5v103q0 71 -46 124t-126 53q-90 0 -136.5 -63t-46.5 -165
q0 -109 44.5 -170.5t133.5 -61.5z" />
    <glyph glyph-name="r" unicode="r" 
d="M406 482q-84 0 -136.5 -50.5t-52.5 -151.5v-280h-53v522h49v-124h2q16 57 64.5 95.5t129.5 38.5q74 0 121 -25v-51q-54 26 -124 26z" />
    <glyph glyph-name="s" unicode="s" 
d="M461 401q-12 47 -45 69.5t-97 22.5t-101 -26.5t-37 -77.5q0 -47 27 -68t84 -27l87 -10q81 -9 116 -43.5t35 -94.5q0 -72 -55.5 -115.5t-158.5 -43.5q-195 0 -210 158h51q8 -60 47 -88t112 -28q74 0 118.5 29.5t44.5 85.5q0 42 -23.5 64t-81.5 29l-95 11q-73 9 -111 41.5
t-38 97.5t49 106.5t141 41.5q83 0 132.5 -35t60.5 -99h-52z" />
    <glyph glyph-name="t" unicode="t" 
d="M258 479h-194v43h132q41 0 52.5 13t11.5 56v91h51v-160h229v-43h-229v-348q0 -97 109 -97q68 0 120 17v-45q-56 -18 -121 -18q-88 0 -124.5 37t-36.5 110v344z" />
    <glyph glyph-name="u" unicode="u" 
d="M166 177q0 -70 27 -106q31 -39 105 -39q79 0 122.5 58t43.5 151v281h53v-522h-49v102h-2q-22 -51 -67 -83t-110 -32q-94 0 -135 46.5t-41 137.5v351h53v-345z" />
    <glyph glyph-name="v" unicode="v" 
d="M71 522h55l161 -388l22 -56q3 -11 11 -31h4q1 4 4.5 14.5l5.5 16.5q18 47 21 56l161 388h53l-217 -522h-63z" />
    <glyph glyph-name="w" unicode="w" 
d="M158 0l-118 522h52l88 -414q1 -6 2.5 -17t3.5 -16q2 -10 3 -14h3l10 48l89 413h62l88 -413q2 -5 3.5 -15t2.5 -15l3 -18h3l9 48l88 413h50l-118 -522h-63l-82 380l-11 53q-2 8 -4 24h-3l-5 -25q-2 -12 -11 -52l-80 -380h-65z" />
    <glyph glyph-name="x" unicode="x" 
d="M290 271l-185 251h60l156 -211h3l151 211h55l-180 -250l201 -272h-62l-169 233h-3l-172 -233h-56z" />
    <glyph glyph-name="y" unicode="y" 
d="M96 522h54l147 -383q19 -52 20 -54l5.5 -14t4.5 -14h2q3 9 9 29q10 34 19 53l146 383h53l-223 -571q-32 -84 -70 -117t-103 -33q-29 0 -70 11v45q33 -12 71 -12q47 0 72 23.5t44 73.5l24 57z" />
    <glyph glyph-name="z" unicode="z" 
d="M123 522h402v-45l-359 -431h367v-46h-427v46l356 430h-339v46z" />
    <glyph glyph-name="braceleft" unicode="{" 
d="M150 306v48h38q48 0 68 18.5t20 63.5v217q0 135 188 135h20v-44q-52 0 -83.5 -6t-47.5 -22.5t-20.5 -35.5t-4.5 -54v-177q0 -105 -78 -118v-4q78 -10 78 -115v-179q0 -35 4.5 -54t20.5 -35.5t47.5 -22.5t83.5 -6v-45h-20q-99 0 -143.5 34.5t-44.5 101.5v218
q0 45 -20 63.5t-68 18.5h-38z" />
    <glyph glyph-name="bar" unicode="|" 
d="M295 788h49v-918h-49v918z" />
    <glyph glyph-name="braceright" unicode="}" 
d="M490 352v-48h-38q-48 0 -68 -18.5t-20 -63.5v-222q0 -130 -188 -130h-20v44q52 0 83.5 6t47.5 22.5t20.5 35.5t4.5 54v177q0 105 78 118v4q-78 10 -78 115v179q0 35 -4.5 54t-20.5 35.5t-47.5 22.5t-83.5 6v45h20q188 0 188 -136v-218q0 -45 20 -63.5t68 -18.5h38z" />
    <glyph glyph-name="asciitilde" unicode="~" 
d="M97 301q-1 52 26.5 86t74.5 34q42 0 128 -38t114 -38q54 0 58 76h42q1 -52 -26.5 -86t-74.5 -34q-41 0 -125 38t-117 38q-55 0 -59 -76h-41z" />
    <glyph glyph-name="uni00A0" unicode="&#xa0;" 
 />
    <glyph glyph-name="exclamdown" unicode="&#xa1;" 
d="M348 -188h-56l7 580h42zM366 600v-99h-92v99h92z" />
    <glyph glyph-name="cent" unicode="&#xa2;" 
d="M545 153q-14 -76 -63 -118t-126 -47v-104h-47v104q-102 9 -154 80t-52 188q0 113 54.5 189.5t151.5 88.5v101h47v-99q72 -4 125 -40.5t64 -109.5h-53q-6 41 -41 71t-95 34v-459q107 6 136 121h53zM309 488q-70 -12 -110 -70.5t-40 -155.5q0 -210 150 -229v455z" />
    <glyph glyph-name="sterling" unicode="&#xa3;" 
d="M573 0h-492v47l47 38q34 28 54 50t32 51.5t8 65.5t-23 83h-128v43h109l-21 47q-58 149 0 238t190 89q107 0 162.5 -57.5t57.5 -153.5h-49q-10 168 -171 168q-106 0 -148 -71.5t7 -194.5l28 -65h242v-43h-224q17 -49 19 -89t-12 -71.5t-34 -54.5t-52 -47l-35 -26v-1h433
v-46z" />
    <glyph glyph-name="currency" unicode="&#xa4;" 
d="M175 346q0 -61 42.5 -104t101.5 -43t101.5 43t42.5 104t-42.5 104t-101.5 43t-101.5 -43t-42.5 -104zM433 201q-44 -31 -92 -38v-100h-44v100q-50 7 -94 38l-76 -77l-31 31l78 77q-31 44 -38 93h-100v44h101q6 48 38 91l-75 77l31 30l74 -76q51 32 92 38v101h44v-102
q44 -5 91 -38l80 79l31 -30l-80 -79q31 -41 38 -91h102v-44h-101q-7 -49 -38 -93l74 -75l-30 -31z" />
    <glyph glyph-name="yen" unicode="&#xa5;" 
d="M295 185h-209v43h209v100h-211v43h201l-213 370h59l188 -343h2l191 343h56l-213 -370h196v-43h-205v-100h207v-43h-207v-185h-51v185z" />
    <glyph glyph-name="brokenbar" unicode="&#xa6;" 
d="M344 382h-49v406h49v-406zM295 -130v446h49v-446h-49z" />
    <glyph glyph-name="section" unicode="&#xa7;" 
d="M137 374q0 -41 19 -63t69 -47l130 -63q10 -6 22.5 -12t20 -10t15.5 -9q92 26 92 101q0 37 -19 61.5t-69 48.5l-133 65q-51 27 -55 29q-92 -29 -92 -101zM85 368q0 47 29.5 81t76.5 51v2q-44 41 -44 101q0 64 50 106t131 42t130 -41.5t51 -114.5h-52q-10 113 -129 113
q-62 0 -96 -26.5t-34 -74.5q0 -42 18 -62t68 -44l172 -83q54 -26 77.5 -58t23.5 -79q0 -98 -110 -139v-2q50 -38 50 -105q0 -63 -48 -104t-140 -41q-100 0 -149 46t-51 121h50q9 -124 155 -124q66 0 98 27.5t32 71.5q0 42 -20.5 65.5t-79.5 52.5l-147 72q-62 30 -87 60
t-25 86z" />
    <glyph glyph-name="dieresis" unicode="&#xa8;" 
d="M179 739h92v-99h-92v99zM367 640v99h92v-99h-92z" />
    <glyph glyph-name="copyright" unicode="&#xa9;" 
d="M50 422q0 164 65 259.5t205 95.5t205 -96t65 -259v-82q0 -166 -65 -261t-205 -95q-270 0 -270 356v82zM96 339q0 -317 224 -317t224 317v86q0 144 -54 228t-170 84q-117 0 -170.5 -83.5t-53.5 -228.5v-86zM451 295q-2 -66 -35 -102.5t-88 -36.5q-73 0 -107 52t-34 169
q0 230 140 230q51 0 86.5 -32.5t35.5 -99.5h-50q0 89 -72 89q-90 0 -90 -184q0 -103 22.5 -142t69.5 -39q69 0 73 96h49z" />
    <glyph glyph-name="ordfeminine" unicode="&#xaa;" 
d="M273 353q70 0 109 45.5t39 117.5v11q-25 -2 -59 -4t-53 -3.5t-40.5 -4t-35 -7t-22.5 -11.5q-28 -19 -28 -60t24 -62.5t66 -21.5zM417 395q-51 -85 -151 -85q-66 0 -102 33t-36 93q0 71 67 103q17 8 43.5 13t48 7t65.5 4.5t69 4.5v29q0 113 -114 113q-49 0 -77.5 -24.5
t-32.5 -61.5h-50q0 54 46 90.5t119 36.5q159 0 159 -163v-179q0 -28 8.5 -41t33.5 -13h14v-41h-12q-51 0 -71 20t-23 61h-4z" />
    <glyph glyph-name="guillemotleft" unicode="&#xab;" 
d="M502 464l-137 -204l138 -203h-57l-136 203l135 204h57zM314 464l-135 -204l136 -203h-55l-138 203l137 204h55z" />
    <glyph glyph-name="logicalnot" unicode="&#xac;" 
d="M501 135v200h-407v45h452v-245h-45z" />
    <glyph glyph-name="registered" unicode="&#xae;" 
d="M74 527q0 106 70 177.5t175 71.5q106 0 176.5 -71.5t70.5 -177.5q0 -105 -70.5 -176t-176.5 -71q-105 0 -175 71t-70 176zM319 314q89 0 147.5 60.5t58.5 152.5t-59 153.5t-147 61.5t-146 -61.5t-58 -153.5t58 -152.5t146 -60.5zM329 549q48 0 48 42q0 18 -12.5 28.5
t-33.5 10.5h-57v-81h55zM274 408h-40v256h95q38 0 63.5 -18t25.5 -54q0 -62 -57 -74l60 -110h-46l-56 106h-45v-106z" />
    <glyph glyph-name="macron" unicode="&#xaf;" 
d="M185 705h270v-49h-270v49z" />
    <glyph glyph-name="degree" unicode="&#xb0;" 
d="M113 551q0 88 58.5 147.5t147.5 59.5t148 -59.5t59 -147.5q0 -89 -59 -148t-148 -59t-147.5 59t-58.5 148zM319 385q69 0 113 47t44 119q0 71 -44 118.5t-113 47.5t-113 -47.5t-44 -118.5q0 -72 44 -119t113 -47z" />
    <glyph glyph-name="plusminus" unicode="&#xb1;" 
d="M342 135h-45v200h-203v45h203v199h45v-199h204v-45h-204v-200zM94 45h452v-45h-452v45z" />
    <glyph glyph-name="twosuperior" unicode="&#xb2;" 
d="M148 685q0 83 49.5 130.5t124.5 47.5q81 0 125 -42.5t44 -105.5q0 -51 -23 -90.5t-82 -90.5l-115 -99l-49 -42q-7 -6 -21 -16v-2h299v-43h-368v41l200 174q63 52 85 86.5t22 79.5q0 49 -31.5 78t-85.5 29q-53 0 -89 -34t-36 -101h-49z" />
    <glyph glyph-name="threesuperior" unicode="&#xb3;" 
d="M276 578v41h53q52 0 78.5 29.5t26.5 73.5q0 46 -30 72.5t-81 26.5q-118 0 -118 -114h-50q0 66 44.5 111t124.5 45q73 0 117.5 -37t44.5 -100q0 -47 -25 -79.5t-68 -44.5v-2q108 -21 108 -127q0 -64 -50.5 -108t-130.5 -44q-89 0 -132.5 45.5t-46.5 110.5h50
q2 -56 36.5 -85t95.5 -29q55 0 90.5 29.5t35.5 79.5q0 53 -32.5 79.5t-83.5 26.5h-57z" />
    <glyph glyph-name="acute" unicode="&#xb4;" 
d="M332 788h78l-104 -179h-44z" />
    <glyph glyph-name="paragraph" unicode="&#xb6;" 
d="M490 765v-765h-50v765h50zM298 405q-91 2 -144 47.5t-53 132.5q0 91 55.5 135.5t145.5 44.5h46v-765h-50v405z" />
    <glyph glyph-name="periodcentered" unicode="&#xb7;" 
d="M275 342h92v-99h-92v99z" />
    <glyph glyph-name="cedilla" unicode="&#xb8;" 
d="M331 -215q-42 0 -63.5 19.5t-22.5 47.5h47q5 -17 14 -23t28 -6q22 0 35 12t13 35q0 21 -12 33t-33 12q-24 0 -41 -14h-42l50 121h38l-32 -72h38q37 0 59.5 -20.5t22.5 -55.5q0 -37 -26 -63t-73 -26z" />
    <glyph glyph-name="onesuperior" unicode="&#xb9;" 
d="M169 332v41h141v348h-131v37h43q52 0 75 20q19 18 21 78h42v-483h132v-41h-323z" />
    <glyph glyph-name="ordmasculine" unicode="&#xba;" 
d="M318 309q-98 0 -147.5 60.5t-49.5 160.5q0 96 53.5 158.5t144.5 62.5q100 0 149.5 -60.5t49.5 -160.5q0 -99 -53 -160t-147 -61zM321 353q70 0 107.5 45t37.5 132t-37.5 132.5t-110.5 45.5q-67 0 -106.5 -46t-39.5 -132q0 -177 149 -177z" />
    <glyph glyph-name="guillemotright" unicode="&#xbb;" 
d="M138 57l137 204l-138 203h57l136 -203l-135 -204h-57zM326 57l135 204l-136 203h55l138 -203l-137 -204h-55z" />
    <glyph glyph-name="onequarter" unicode="&#xbc;" horiz-adv-x="1920" 
d="M1251 780h49l-570 -820h-50zM1565 134v292h-2q-1 -2 -4.5 -8.5l-5.5 -10.5t-7 -12l-10 -16t-10 -15l-168 -230h207zM1613 91v-131h-49v131h-257v40l255 352h51v-349h88v-43h-88zM169 257v41h141v348h-131v37h43q52 0 75 20q19 18 21 78h42v-483h132v-41h-323z" />
    <glyph glyph-name="onehalf" unicode="&#xbd;" horiz-adv-x="1920" 
d="M1221 780h49l-570 -820h-50zM1328 313q0 83 49.5 130.5t124.5 47.5q81 0 125 -42.5t44 -105.5q0 -51 -23 -90.5t-82 -90.5l-115 -99l-49 -42q-7 -6 -21 -16v-2h299v-43h-368v41l200 174q63 52 85 86.5t22 79.5q0 49 -31.5 78t-85.5 29q-53 0 -89 -34t-36 -101h-49z
M169 257v41h141v348h-131v37h43q52 0 75 20q19 18 21 78h42v-483h132v-41h-323z" />
    <glyph glyph-name="threequarters" unicode="&#xbe;" horiz-adv-x="1920" 
d="M1241 780h49l-570 -820h-50zM1565 134v292h-2q-1 -2 -4.5 -8.5l-5.5 -10.5t-7 -12l-10 -16t-10 -15l-168 -230h207zM1613 91v-131h-49v131h-257v40l255 352h51v-349h88v-43h-88zM276 503v41h53q52 0 78.5 29.5t26.5 73.5q0 46 -30 72.5t-81 26.5q-118 0 -118 -114h-50
q0 66 44.5 111t124.5 45q73 0 117.5 -37t44.5 -100q0 -47 -25 -79.5t-68 -44.5v-2q108 -21 108 -127q0 -64 -50.5 -108t-130.5 -44q-89 0 -132.5 45.5t-46.5 110.5h50q2 -56 36.5 -85t95.5 -29q55 0 90.5 29.5t35.5 79.5q0 53 -32.5 79.5t-83.5 26.5h-57z" />
    <glyph glyph-name="questiondown" unicode="&#xbf;" 
d="M166 -6q0 -71 44.5 -109t125.5 -38q82 0 131.5 53.5t47.5 145.5h49q4 -113 -62 -178t-170 -65q-108 0 -163.5 53.5t-55.5 131.5q0 68 25.5 110.5t81.5 93.5l32 30q43 41 53 62t10 81v27h48v-26q0 -76 -13 -104.5t-68 -75.5l-42 -37q-74 -64 -74 -155zM384 600v-99h-92v99
h92z" />
    <glyph glyph-name="Agrave" unicode="&#xc0;" 
d="M312 710q0 -1 -1.5 -9t-4 -18l-6.5 -26l-8 -31l-94 -314h238l-95 315q-9 31 -15 59q-4 20 -5 24h-9zM449 267h-265l-82 -267h-53l234 765h70l233 -765h-58zM346 827h-45l-92 133h75z" />
    <glyph glyph-name="Aacute" unicode="&#xc1;" 
d="M312 710q0 -1 -1.5 -9t-4 -18l-6.5 -26l-8 -31l-94 -314h238l-95 315q-9 31 -15 59q-4 20 -5 24h-9zM449 267h-265l-82 -267h-53l234 765h70l233 -765h-58zM363 960h75l-92 -133h-45z" />
    <glyph glyph-name="Acircumflex" unicode="&#xc2;" 
d="M312 710q0 -1 -1.5 -9t-4 -18l-6.5 -26l-8 -31l-94 -314h238l-95 315q-9 31 -15 59q-4 20 -5 24h-9zM449 267h-265l-82 -267h-53l234 765h70l233 -765h-58zM462 827h-55l-90 84h-1l-88 -84h-50l110 133h59z" />
    <glyph glyph-name="Atilde" unicode="&#xc3;" 
d="M312 710q0 -1 -1.5 -9t-4 -18l-6.5 -26l-8 -31l-94 -314h238l-95 315q-9 31 -15 59q-4 20 -5 24h-9zM449 267h-265l-82 -267h-53l234 765h70l233 -765h-58zM144 827q0 58 24 96t77 38q23 0 46 -13t38.5 -28.5t34.5 -28.5t35 -13q29 0 39 20.5t13 63.5h46q0 -57 -24 -95.5
t-76 -38.5q-30 0 -58.5 21t-53 41.5t-43.5 20.5q-29 0 -39 -20t-13 -64h-46z" />
    <glyph glyph-name="Adieresis" unicode="&#xc4;" 
d="M312 710q0 -1 -1.5 -9t-4 -18l-6.5 -26l-8 -31l-94 -314h238l-95 315q-9 31 -15 59q-4 20 -5 24h-9zM449 267h-265l-82 -267h-53l234 765h70l233 -765h-58zM367 939h92v-99h-92v99zM179 939h92v-99h-92v99z" />
    <glyph glyph-name="Aring" unicode="&#xc5;" 
d="M312 710q0 -1 -1.5 -9t-4 -18l-6.5 -26l-8 -31l-94 -314h238l-95 315q-9 31 -15 59q-4 20 -5 24h-9zM449 267h-265l-82 -267h-53l234 765h70l233 -765h-58zM320 800q-54 0 -87 33t-33 87t33 88t87 34q56 0 88.5 -33.5t32.5 -88.5q0 -53 -33.5 -86.5t-87.5 -33.5z
M320 1005q-35 0 -56 -24t-21 -61t20.5 -59.5t56.5 -22.5q35 0 56 22.5t21 59.5q0 38 -20 61.5t-57 23.5z" />
    <glyph glyph-name="AE" unicode="&#xc6;" 
d="M338 718h-18l-154 -428h172v428zM61 0h-52l280 765h333v-47h-234v-302h194v-46h-194v-323h237v-47h-287v247h-188z" />
    <glyph glyph-name="Ccedilla" unicode="&#xc7;" 
d="M336 -215q-42 0 -63.5 19.5t-22.5 47.5h47q5 -17 14 -23t28 -6q22 0 35 12t13 35q0 21 -12 33t-33 12q-24 0 -41 -14h-42l35 85q-227 26 -227 393q0 202 65.5 300t203.5 98q99 0 163.5 -60.5t72.5 -164.5h-54q-7 76 -51 128.5t-131 52.5q-51 0 -88 -17t-61 -46t-38 -75
t-19.5 -97.5t-5.5 -118.5q0 -351 215 -351q81 0 126.5 53.5t52.5 127.5h53q-10 -104 -74.5 -164.5t-162.5 -60.5h-4l-15 -34h38q37 0 59.5 -20.5t22.5 -55.5q0 -37 -26 -63t-73 -26z" />
    <glyph glyph-name="Egrave" unicode="&#xc8;" 
d="M106 765h437v-47h-383v-302h343v-46h-343v-323h386v-47h-440v765zM367 827h-45l-92 133h75z" />
    <glyph glyph-name="Eacute" unicode="&#xc9;" 
d="M106 765h437v-47h-383v-302h343v-46h-343v-323h386v-47h-440v765zM358 960h75l-92 -133h-45z" />
    <glyph glyph-name="Ecircumflex" unicode="&#xca;" 
d="M106 765h437v-47h-383v-302h343v-46h-343v-323h386v-47h-440v765zM472 827h-55l-90 84h-1l-88 -84h-50l110 133h59z" />
    <glyph glyph-name="Edieresis" unicode="&#xcb;" 
d="M106 765h437v-47h-383v-302h343v-46h-343v-323h386v-47h-440v765zM390 939h92v-99h-92v99zM202 939h92v-99h-92v99z" />
    <glyph glyph-name="Igrave" unicode="&#xcc;" 
d="M347 44h183v-44h-420v44h183v677h-183v44h420v-44h-183v-677zM346 827h-45l-92 133h75z" />
    <glyph glyph-name="Iacute" unicode="&#xcd;" 
d="M347 44h183v-44h-420v44h183v677h-183v44h420v-44h-183v-677zM368 960h75l-92 -133h-45z" />
    <glyph glyph-name="Icircumflex" unicode="&#xce;" 
d="M347 44h183v-44h-420v44h183v677h-183v44h420v-44h-183v-677zM462 827h-55l-90 84h-1l-88 -84h-50l110 133h59z" />
    <glyph glyph-name="Idieresis" unicode="&#xcf;" 
d="M347 44h183v-44h-420v44h183v677h-183v44h420v-44h-183v-677zM369 939h92v-99h-92v99zM181 939h92v-99h-92v99z" />
    <glyph glyph-name="Eth" unicode="&#xd0;" 
d="M93 0v370h-77v46h77v349h176q63 0 119 -22.5t101.5 -67t72.5 -119.5t27 -171q0 -191 -92 -288t-225 -97h-179zM262 47q55 0 100.5 16t85 52t62 104t22.5 163q0 88 -23 154.5t-61.5 105t-85 57.5t-98.5 19h-117v-302h207v-46h-207v-323h115z" />
    <glyph glyph-name="Ntilde" unicode="&#xd1;" 
d="M84 765h77l300 -613q9 -18 18.5 -42.5t10.5 -27.5q6 -18 8 -25h6v708h52v-765h-77l-290 592q-22 42 -35 80l-7.5 21t-5.5 15h-5v-708h-52v765zM158 827q0 58 24 96t77 38q23 0 46 -13t38.5 -28.5t34.5 -28.5t35 -13q29 0 39 20.5t13 63.5h46q0 -57 -24 -95.5t-76 -38.5
q-30 0 -58.5 21t-53 41.5t-43.5 20.5q-29 0 -39 -20t-13 -64h-46z" />
    <glyph glyph-name="Ograve" unicode="&#xd2;" 
d="M59 380q0 396 262 396q129 0 194.5 -91.5t65.5 -304.5q0 -396 -262 -396q-131 0 -195.5 91.5t-64.5 304.5zM320 27q105 0 154.5 83.5t49.5 269.5q0 193 -47 273t-157 80q-103 0 -153.5 -83.5t-50.5 -269.5t48 -269.5t156 -83.5zM349 827h-45l-92 133h75z" />
    <glyph glyph-name="Oacute" unicode="&#xd3;" 
d="M354 960h75l-92 -133h-45zM59 380q0 396 262 396q129 0 194.5 -91.5t65.5 -304.5q0 -396 -262 -396q-131 0 -195.5 91.5t-64.5 304.5zM320 27q105 0 154.5 83.5t49.5 269.5q0 193 -47 273t-157 80q-103 0 -153.5 -83.5t-50.5 -269.5t48 -269.5t156 -83.5z" />
    <glyph glyph-name="Ocircumflex" unicode="&#xd4;" 
d="M59 380q0 396 262 396q129 0 194.5 -91.5t65.5 -304.5q0 -396 -262 -396q-131 0 -195.5 91.5t-64.5 304.5zM320 27q105 0 154.5 83.5t49.5 269.5q0 193 -47 273t-157 80q-103 0 -153.5 -83.5t-50.5 -269.5t48 -269.5t156 -83.5zM462 827h-55l-90 84h-1l-88 -84h-50
l110 133h59z" />
    <glyph glyph-name="Otilde" unicode="&#xd5;" 
d="M59 380q0 396 262 396q129 0 194.5 -91.5t65.5 -304.5q0 -396 -262 -396q-131 0 -195.5 91.5t-64.5 304.5zM320 27q105 0 154.5 83.5t49.5 269.5q0 193 -47 273t-157 80q-103 0 -153.5 -83.5t-50.5 -269.5t48 -269.5t156 -83.5zM152 827q0 58 24 96t77 38q23 0 46 -13
t38.5 -28.5t34.5 -28.5t35 -13q29 0 39 20.5t13 63.5h46q0 -57 -24 -95.5t-76 -38.5q-30 0 -58.5 21t-53 41.5t-43.5 20.5q-29 0 -39 -20t-13 -64h-46z" />
    <glyph glyph-name="Odieresis" unicode="&#xd6;" 
d="M59 380q0 396 262 396q129 0 194.5 -91.5t65.5 -304.5q0 -396 -262 -396q-131 0 -195.5 91.5t-64.5 304.5zM320 27q105 0 154.5 83.5t49.5 269.5q0 193 -47 273t-157 80q-103 0 -153.5 -83.5t-50.5 -269.5t48 -269.5t156 -83.5zM369 939h92v-99h-92v99zM181 939h92v-99
h-92v99z" />
    <glyph glyph-name="multiply" unicode="&#xd7;" 
d="M118 179l169 174l-171 176l33 33l171 -176l169 174l33 -33l-169 -174l172 -176l-34 -34l-171 177l-169 -174z" />
    <glyph glyph-name="Oslash" unicode="&#xd8;" 
d="M320 733q-103 0 -153.5 -83.5t-50.5 -269.5q0 -150 29 -231l332 506q-46 78 -157 78zM320 27q105 0 154.5 83.5t49.5 269.5q0 152 -27 232l-332 -505q47 -80 155 -80zM581 380q0 -396 -262 -396q-123 0 -184 78l-57 -87h-48l81 123q-52 95 -52 282q0 396 262 396
q121 0 184 -79l63 96h48l-87 -133q52 -95 52 -280z" />
    <glyph glyph-name="Ugrave" unicode="&#xd9;" 
d="M79 765h55v-519q0 -106 43 -158.5t146 -52.5q102 0 143.5 52.5t41.5 158.5v519h53v-526q0 -135 -62 -194.5t-179 -59.5q-118 0 -179.5 60t-61.5 195v525zM354 827h-45l-92 133h75z" />
    <glyph glyph-name="Uacute" unicode="&#xda;" 
d="M79 765h55v-519q0 -106 43 -158.5t146 -52.5q102 0 143.5 52.5t41.5 158.5v519h53v-526q0 -135 -62 -194.5t-179 -59.5q-118 0 -179.5 60t-61.5 195v525zM357 960h75l-92 -133h-45z" />
    <glyph glyph-name="Ucircumflex" unicode="&#xdb;" 
d="M79 765h55v-519q0 -106 43 -158.5t146 -52.5q102 0 143.5 52.5t41.5 158.5v519h53v-526q0 -135 -62 -194.5t-179 -59.5q-118 0 -179.5 60t-61.5 195v525zM465 827h-55l-90 84h-1l-88 -84h-50l110 133h59z" />
    <glyph glyph-name="Udieresis" unicode="&#xdc;" 
d="M79 765h55v-519q0 -106 43 -158.5t146 -52.5q102 0 143.5 52.5t41.5 158.5v519h53v-526q0 -135 -62 -194.5t-179 -59.5q-118 0 -179.5 60t-61.5 195v525zM372 939h92v-99h-92v99zM184 939h92v-99h-92v99z" />
    <glyph glyph-name="Yacute" unicode="&#xdd;" 
d="M294 345l-248 420h61l214 -375h1l215 375h58l-247 -417v-348h-54v345zM372 960h75l-92 -133h-45z" />
    <glyph glyph-name="Thorn" unicode="&#xde;" 
d="M333 227q89 2 134.5 41t45.5 120q0 85 -46 122.5t-136 37.5h-153v-321h149h6zM178 181v-181h-53v765h53v-170h148q241 0 241 -207q0 -102 -66.5 -154.5t-181.5 -52.5h-141z" />
    <glyph glyph-name="germandbls" unicode="&#xdf;" 
d="M126 566q0 59 17.5 102.5t47 67t62 34.5t69.5 11q90 0 145 -47.5t55 -144.5q0 -122 -115 -167v-2q69 -14 114 -61t45 -136q0 -110 -68.5 -166.5t-178.5 -56.5h-32v43h31q193 0 193 174q0 84 -47 129.5t-140 45.5h-19v47h19q65 0 104 41.5t39 108.5q0 73 -39 111t-104 38
q-67 0 -106.5 -43.5t-39.5 -138.5v-556h-52v566z" />
    <glyph glyph-name="agrave" unicode="&#xe0;" 
d="M151 138q0 -50 33 -76.5t88 -26.5q71 0 123.5 53.5t52.5 144.5v31q-124 -9 -176 -17t-75 -25q-46 -30 -46 -84zM448 105q-22 -54 -70.5 -83.5t-113.5 -29.5q-76 0 -121.5 38.5t-45.5 106.5q0 81 70 122q37 20 101 30.5t181 17.5v19q0 41 -4.5 67t-18 50t-42.5 35.5
t-75 11.5q-64 0 -99 -29.5t-42 -75.5h-50q6 62 56 104.5t134 44.5q61 0 101 -17t58.5 -48.5t25 -63t6.5 -74.5v-234q0 -30 10.5 -42t36.5 -12h20v-43h-21q-54 0 -75 25t-20 80h-2zM303 609l-104 179h78l70 -179h-44z" />
    <glyph glyph-name="aacute" unicode="&#xe1;" 
d="M151 138q0 -50 33 -76.5t88 -26.5q71 0 123.5 53.5t52.5 144.5v31q-124 -9 -176 -17t-75 -25q-46 -30 -46 -84zM448 105q-22 -54 -70.5 -83.5t-113.5 -29.5q-76 0 -121.5 38.5t-45.5 106.5q0 81 70 122q37 20 101 30.5t181 17.5v19q0 41 -4.5 67t-18 50t-42.5 35.5
t-75 11.5q-64 0 -99 -29.5t-42 -75.5h-50q6 62 56 104.5t134 44.5q61 0 101 -17t58.5 -48.5t25 -63t6.5 -74.5v-234q0 -30 10.5 -42t36.5 -12h20v-43h-21q-54 0 -75 25t-20 80h-2zM362 788h78l-104 -179h-44z" />
    <glyph glyph-name="acircumflex" unicode="&#xe2;" 
d="M151 138q0 -50 33 -76.5t88 -26.5q71 0 123.5 53.5t52.5 144.5v31q-124 -9 -176 -17t-75 -25q-46 -30 -46 -84zM448 105q-22 -54 -70.5 -83.5t-113.5 -29.5q-76 0 -121.5 38.5t-45.5 106.5q0 81 70 122q37 20 101 30.5t181 17.5v19q0 41 -4.5 67t-18 50t-42.5 35.5
t-75 11.5q-64 0 -99 -29.5t-42 -75.5h-50q6 62 56 104.5t134 44.5q61 0 101 -17t58.5 -48.5t25 -63t6.5 -74.5v-234q0 -30 10.5 -42t36.5 -12h20v-43h-21q-54 0 -75 25t-20 80h-2zM462 609h-52l-93 136h-5l-91 -136h-47l106 179h71z" />
    <glyph glyph-name="atilde" unicode="&#xe3;" 
d="M151 138q0 -50 33 -76.5t88 -26.5q71 0 123.5 53.5t52.5 144.5v31q-124 -9 -176 -17t-75 -25q-46 -30 -46 -84zM448 105q-22 -54 -70.5 -83.5t-113.5 -29.5q-76 0 -121.5 38.5t-45.5 106.5q0 81 70 122q37 20 101 30.5t181 17.5v19q0 41 -4.5 67t-18 50t-42.5 35.5
t-75 11.5q-64 0 -99 -29.5t-42 -75.5h-50q6 62 56 104.5t134 44.5q61 0 101 -17t58.5 -48.5t25 -63t6.5 -74.5v-234q0 -30 10.5 -42t36.5 -12h20v-43h-21q-54 0 -75 25t-20 80h-2zM144 627q0 54 25 92.5t75 38.5q29 0 57.5 -20t52.5 -40.5t43 -20.5q30 0 41 19t12 61h45
q0 -55 -24.5 -92t-74.5 -37q-30 0 -58.5 20.5t-53 41t-42.5 20.5q-28 0 -40 -21t-13 -62h-45z" />
    <glyph glyph-name="adieresis" unicode="&#xe4;" 
d="M151 138q0 -50 33 -76.5t88 -26.5q71 0 123.5 53.5t52.5 144.5v31q-124 -9 -176 -17t-75 -25q-46 -30 -46 -84zM448 105q-22 -54 -70.5 -83.5t-113.5 -29.5q-76 0 -121.5 38.5t-45.5 106.5q0 81 70 122q37 20 101 30.5t181 17.5v19q0 41 -4.5 67t-18 50t-42.5 35.5
t-75 11.5q-64 0 -99 -29.5t-42 -75.5h-50q6 62 56 104.5t134 44.5q61 0 101 -17t58.5 -48.5t25 -63t6.5 -74.5v-234q0 -30 10.5 -42t36.5 -12h20v-43h-21q-54 0 -75 25t-20 80h-2zM179 739h92v-99h-92v99zM367 640v99h92v-99h-92z" />
    <glyph glyph-name="aring" unicode="&#xe5;" 
d="M151 138q0 -50 33 -76.5t88 -26.5q71 0 123.5 53.5t52.5 144.5v31q-124 -9 -176 -17t-75 -25q-46 -30 -46 -84zM448 105q-22 -54 -70.5 -83.5t-113.5 -29.5q-76 0 -121.5 38.5t-45.5 106.5q0 81 70 122q37 20 101 30.5t181 17.5v19q0 41 -4.5 67t-18 50t-42.5 35.5
t-75 11.5q-64 0 -99 -29.5t-42 -75.5h-50q6 62 56 104.5t134 44.5q61 0 101 -17t58.5 -48.5t25 -63t6.5 -74.5v-234q0 -30 10.5 -42t36.5 -12h20v-43h-21q-54 0 -75 25t-20 80h-2zM193 709q0 54 33 88t87 34q56 0 88.5 -33.5t32.5 -88.5q0 -53 -33.5 -86.5t-87.5 -33.5
t-87 33t-33 87zM313 627q35 0 56 22.5t21 59.5q0 38 -20 61.5t-57 23.5q-35 0 -56 -24t-21 -61t20.5 -59.5t56.5 -22.5z" />
    <glyph glyph-name="ae" unicode="&#xe6;" 
d="M558 299q0 91 -23.5 142t-84.5 51t-86.5 -52t-27.5 -148h222v7zM603 125q-13 -61 -53 -98t-99 -37q-63 0 -96 31t-46 91h-4q-20 -63 -57 -92.5t-94 -29.5q-62 0 -98 38.5t-36 104.5q0 97 71 132q33 16 69 21.5t129 5.5v75q0 125 -98 125q-47 0 -73.5 -29t-26.5 -76h-50
q0 62 40.5 105t108.5 43q55 0 87 -28t42 -67h4q35 95 131 95q85 0 120 -66t35 -185v-33l-273 1q-1 -115 26 -167t93 -52q76 0 97 92h51zM162 33q54 0 90 48.5t36 132.5v37q-91 0 -124 -4.5t-54 -19.5q-40 -28 -40 -89q0 -105 92 -105z" />
    <glyph glyph-name="ccedilla" unicode="&#xe7;" 
d="M333 -215q-42 0 -63.5 19.5t-22.5 47.5h47q5 -17 14 -23t28 -6q22 0 35 12t13 35q0 21 -12 33t-33 12q-24 0 -41 -14h-42l37 89q-94 14 -142 84t-48 182q0 123 63 201.5t176 78.5q76 0 134 -37t69 -113h-53q-7 43 -45 74t-103 31q-86 0 -135.5 -59.5t-49.5 -169.5
q0 -231 180 -231q130 0 153 122h53q-14 -82 -69 -124t-139 -42h-9l-16 -37h38q37 0 59.5 -20.5t22.5 -55.5q0 -37 -26 -63t-73 -26z" />
    <glyph glyph-name="egrave" unicode="&#xe8;" 
d="M492 296q0 33 -6 63t-22 62t-49.5 51t-81.5 19q-84 0 -130.5 -54t-52.5 -145h342v4zM535 125q-17 -60 -70 -99t-131 -39q-237 0 -237 269q0 125 61.5 202t174.5 77q57 0 100 -21t66 -57t34 -77t11 -87v-42l-395 -1q5 -219 187 -219q35 0 63.5 10.5t45.5 27t26.5 30
t14.5 26.5h49zM314 609l-104 179h78l70 -179h-44z" />
    <glyph glyph-name="eacute" unicode="&#xe9;" 
d="M492 296q0 33 -6 63t-22 62t-49.5 51t-81.5 19q-84 0 -130.5 -54t-52.5 -145h342v4zM535 125q-17 -60 -70 -99t-131 -39q-237 0 -237 269q0 125 61.5 202t174.5 77q57 0 100 -21t66 -57t34 -77t11 -87v-42l-395 -1q5 -219 187 -219q35 0 63.5 10.5t45.5 27t26.5 30
t14.5 26.5h49zM376 788h78l-104 -179h-44z" />
    <glyph glyph-name="ecircumflex" unicode="&#xea;" 
d="M492 296q0 33 -6 63t-22 62t-49.5 51t-81.5 19q-84 0 -130.5 -54t-52.5 -145h342v4zM535 125q-17 -60 -70 -99t-131 -39q-237 0 -237 269q0 125 61.5 202t174.5 77q57 0 100 -21t66 -57t34 -77t11 -87v-42l-395 -1q5 -219 187 -219q35 0 63.5 10.5t45.5 27t26.5 30
t14.5 26.5h49zM479 609h-52l-93 136h-5l-91 -136h-47l106 179h71z" />
    <glyph glyph-name="edieresis" unicode="&#xeb;" 
d="M492 296q0 33 -6 63t-22 62t-49.5 51t-81.5 19q-84 0 -130.5 -54t-52.5 -145h342v4zM535 125q-17 -60 -70 -99t-131 -39q-237 0 -237 269q0 125 61.5 202t174.5 77q57 0 100 -21t66 -57t34 -77t11 -87v-42l-395 -1q5 -219 187 -219q35 0 63.5 10.5t45.5 27t26.5 30
t14.5 26.5h49zM192 739h92v-99h-92v99zM380 640v99h92v-99h-92z" />
    <glyph glyph-name="igrave" unicode="&#xec;" 
d="M105 0v43h198v435h-172v44h225v-479h203v-43h-454zM301 609l-104 179h78l70 -179h-44z" />
    <glyph glyph-name="iacute" unicode="&#xed;" 
d="M105 0v43h198v435h-172v44h225v-479h203v-43h-454zM374 788h78l-104 -179h-44z" />
    <glyph glyph-name="icircumflex" unicode="&#xee;" 
d="M105 0v43h198v435h-172v44h225v-479h203v-43h-454zM458 609h-52l-93 136h-5l-91 -136h-47l106 179h71z" />
    <glyph glyph-name="idieresis" unicode="&#xef;" 
d="M105 0v43h198v435h-172v44h225v-479h203v-43h-454zM176 739h92v-99h-92v99zM364 640v99h92v-99h-92z" />
    <glyph glyph-name="eth" unicode="&#xf0;" 
d="M319 -13q-117 0 -176.5 75t-59.5 199q0 126 61.5 200t173.5 74q74 0 125 -48h6q-49 93 -123 169l-145 -49l-14 40l124 42q-55 47 -114 83l51 17q59 -32 113 -83l122 41l13 -40l-101 -34q78 -82 127 -187t49 -216q0 -130 -59 -206.5t-173 -76.5zM316 492q-86 0 -133 -62
t-47 -169q0 -108 46.5 -169.5t135.5 -61.5q86 0 132 62.5t46 170.5q0 229 -180 229z" />
    <glyph glyph-name="ntilde" unicode="&#xf1;" 
d="M473 342q0 68 -28 105q-31 42 -102 42q-84 0 -127 -54.5t-43 -130.5v-304h-53v522h49v-96h2q27 52 68 80.5t112 28.5q175 0 175 -197v-338h-53v342zM150 627q0 54 25 92.5t75 38.5q29 0 57.5 -20t52.5 -40.5t43 -20.5q30 0 41 19t12 61h45q0 -55 -24.5 -92t-74.5 -37
q-30 0 -58.5 20.5t-53 41t-42.5 20.5q-28 0 -40 -21t-13 -62h-45z" />
    <glyph glyph-name="ograve" unicode="&#xf2;" 
d="M320 -13q-112 0 -173 74.5t-61 199.5t61 199.5t173 74.5t173 -74.5t61 -199.5t-61 -199.5t-173 -74.5zM320 492q-88 0 -134.5 -62t-46.5 -169q0 -108 45.5 -169.5t135.5 -61.5q88 0 134.5 62t46.5 169t-46.5 169t-134.5 62zM302 609l-104 179h78l70 -179h-44z" />
    <glyph glyph-name="oacute" unicode="&#xf3;" 
d="M320 -13q-112 0 -173 74.5t-61 199.5t61 199.5t173 74.5t173 -74.5t61 -199.5t-61 -199.5t-173 -74.5zM320 492q-88 0 -134.5 -62t-46.5 -169q0 -108 45.5 -169.5t135.5 -61.5q88 0 134.5 62t46.5 169t-46.5 169t-134.5 62zM361 788h78l-104 -179h-44z" />
    <glyph glyph-name="ocircumflex" unicode="&#xf4;" 
d="M320 -13q-112 0 -173 74.5t-61 199.5t61 199.5t173 74.5t173 -74.5t61 -199.5t-61 -199.5t-173 -74.5zM320 492q-88 0 -134.5 -62t-46.5 -169q0 -108 45.5 -169.5t135.5 -61.5q88 0 134.5 62t46.5 169t-46.5 169t-134.5 62zM468 609h-52l-93 136h-5l-91 -136h-47l106 179
h71z" />
    <glyph glyph-name="otilde" unicode="&#xf5;" 
d="M320 -13q-112 0 -173 74.5t-61 199.5t61 199.5t173 74.5t173 -74.5t61 -199.5t-61 -199.5t-173 -74.5zM320 492q-88 0 -134.5 -62t-46.5 -169q0 -108 45.5 -169.5t135.5 -61.5q88 0 134.5 62t46.5 169t-46.5 169t-134.5 62zM145 627q0 54 25 92.5t75 38.5q29 0 57.5 -20
t52.5 -40.5t43 -20.5q30 0 41 19t12 61h45q0 -55 -24.5 -92t-74.5 -37q-30 0 -58.5 20.5t-52.5 41t-43 20.5q-28 0 -40 -21t-13 -62h-45z" />
    <glyph glyph-name="odieresis" unicode="&#xf6;" 
d="M320 -13q-112 0 -173 74.5t-61 199.5t61 199.5t173 74.5t173 -74.5t61 -199.5t-61 -199.5t-173 -74.5zM320 492q-88 0 -134.5 -62t-46.5 -169q0 -108 45.5 -169.5t135.5 -61.5q88 0 134.5 62t46.5 169t-46.5 169t-134.5 62zM181 739h92v-99h-92v99zM369 640v99h92v-99
h-92z" />
    <glyph glyph-name="divide" unicode="&#xf7;" 
d="M273 582h92v-94h-92v94zM94 380h452v-45h-452v45zM273 134v94h92v-94h-92z" />
    <glyph glyph-name="oslash" unicode="&#xf8;" 
d="M320 492q-88 0 -134.5 -62t-46.5 -169q0 -97 36 -155l267 339q-47 47 -122 47zM320 30q88 0 134.5 62t46.5 169q0 91 -33 150l-267 -338q44 -43 119 -43zM554 261q0 -125 -61 -199.5t-173 -74.5q-88 0 -147 51l-43 -54h-51l66 83q-59 74 -59 194q0 125 61 199.5t173 74.5
q90 0 150 -54l43 54h53l-67 -85q55 -73 55 -189z" />
    <glyph glyph-name="ugrave" unicode="&#xf9;" 
d="M166 177q0 -70 27 -106q31 -39 105 -39q79 0 122.5 58t43.5 151v281h53v-522h-49v102h-2q-22 -51 -67 -83t-110 -32q-94 0 -135 46.5t-41 137.5v351h53v-345zM304 609l-104 179h78l70 -179h-44z" />
    <glyph glyph-name="uacute" unicode="&#xfa;" 
d="M166 177q0 -70 27 -106q31 -39 105 -39q79 0 122.5 58t43.5 151v281h53v-522h-49v102h-2q-22 -51 -67 -83t-110 -32q-94 0 -135 46.5t-41 137.5v351h53v-345zM365 788h78l-104 -179h-44z" />
    <glyph glyph-name="ucircumflex" unicode="&#xfb;" 
d="M166 177q0 -70 27 -106q31 -39 105 -39q79 0 122.5 58t43.5 151v281h53v-522h-49v102h-2q-22 -51 -67 -83t-110 -32q-94 0 -135 46.5t-41 137.5v351h53v-345zM470 609h-52l-93 136h-5l-91 -136h-47l106 179h71z" />
    <glyph glyph-name="udieresis" unicode="&#xfc;" 
d="M166 177q0 -70 27 -106q31 -39 105 -39q79 0 122.5 58t43.5 151v281h53v-522h-49v102h-2q-22 -51 -67 -83t-110 -32q-94 0 -135 46.5t-41 137.5v351h53v-345zM183 739h92v-99h-92v99zM371 640v99h92v-99h-92z" />
    <glyph glyph-name="yacute" unicode="&#xfd;" 
d="M96 522h54l147 -383q19 -52 20 -54l5.5 -14t4.5 -14h2q3 9 9 29q10 34 19 53l146 383h53l-223 -571q-32 -84 -70 -117t-103 -33q-29 0 -70 11v45q33 -12 71 -12q47 0 72 23.5t44 73.5l24 57zM377 788h78l-104 -179h-44z" />
    <glyph glyph-name="thorn" unicode="&#xfe;" 
d="M153 211q0 -70 45.5 -125t128.5 -55q88 0 134 61.5t46 171.5q0 101 -42.5 164t-130.5 63t-134.5 -53.5t-46.5 -130.5v-96zM100 788h53v-361h3q22 51 71 79.5t115 28.5q92 0 156.5 -66t64.5 -203q0 -138 -67 -208.5t-169 -70.5q-65 0 -110.5 31.5t-61.5 76.5h-2v-283h-53
v976z" />
    <glyph glyph-name="ydieresis" unicode="&#xff;" 
d="M96 522h54l147 -383q19 -52 20 -54l5.5 -14t4.5 -14h2q3 9 9 29q10 34 19 53l146 383h53l-223 -571q-32 -84 -70 -117t-103 -33q-29 0 -70 11v45q33 -12 71 -12q47 0 72 23.5t44 73.5l24 57zM194 739h92v-99h-92v99zM382 640v99h92v-99h-92z" />
    <glyph glyph-name="Amacron" unicode="&#x100;" 
d="M312 710q0 -1 -1.5 -9t-4 -18l-6.5 -26l-8 -31l-94 -314h238l-95 315q-9 31 -15 59q-4 20 -5 24h-9zM449 267h-265l-82 -267h-53l234 765h70l233 -765h-58zM185 911h270v-49h-270v49z" />
    <glyph glyph-name="amacron" unicode="&#x101;" 
d="M151 138q0 -50 33 -76.5t88 -26.5q71 0 123.5 53.5t52.5 144.5v31q-124 -9 -176 -17t-75 -25q-46 -30 -46 -84zM448 105q-22 -54 -70.5 -83.5t-113.5 -29.5q-76 0 -121.5 38.5t-45.5 106.5q0 81 70 122q37 20 101 30.5t181 17.5v19q0 41 -4.5 67t-18 50t-42.5 35.5
t-75 11.5q-64 0 -99 -29.5t-42 -75.5h-50q6 62 56 104.5t134 44.5q61 0 101 -17t58.5 -48.5t25 -63t6.5 -74.5v-234q0 -30 10.5 -42t36.5 -12h20v-43h-21q-54 0 -75 25t-20 80h-2zM182 705h270v-49h-270v49z" />
    <glyph glyph-name="Abreve" unicode="&#x102;" 
d="M312 710q0 -1 -1.5 -9t-4 -18l-6.5 -26l-8 -31l-94 -314h238l-95 315q-9 31 -15 59q-4 20 -5 24h-9zM449 267h-265l-82 -267h-53l234 765h70l233 -765h-58zM227 970q11 -92 96 -92q87 0 98 92h46q-6 -71 -46 -105.5t-101 -34.5t-99 34.5t-44 105.5h50z" />
    <glyph glyph-name="abreve" unicode="&#x103;" 
d="M151 138q0 -50 33 -76.5t88 -26.5q71 0 123.5 53.5t52.5 144.5v31q-124 -9 -176 -17t-75 -25q-46 -30 -46 -84zM448 105q-22 -54 -70.5 -83.5t-113.5 -29.5q-76 0 -121.5 38.5t-45.5 106.5q0 81 70 122q37 20 101 30.5t181 17.5v19q0 41 -4.5 67t-18 50t-42.5 35.5
t-75 11.5q-64 0 -99 -29.5t-42 -75.5h-50q6 62 56 104.5t134 44.5q61 0 101 -17t58.5 -48.5t25 -63t6.5 -74.5v-234q0 -30 10.5 -42t36.5 -12h20v-43h-21q-54 0 -75 25t-20 80h-2zM230 783q0 -116 99 -116q101 0 101 116h44q0 -83 -40.5 -123.5t-107.5 -40.5
q-66 0 -105 40.5t-39 123.5h48z" />
    <glyph glyph-name="Aogonek" unicode="&#x104;" 
d="M312 710q0 -1 -1.5 -9t-4 -18l-6.5 -26l-8 -31l-94 -314h238l-95 315q-9 31 -15 59q-4 20 -5 24h-9zM586 -188h-13q-127 0 -127 92q0 61 81 99l-78 264h-265l-82 -267h-53l234 765h70l233 -765q-89 -35 -89 -88q0 -32 21 -44.5t68 -13.5v-42z" />
    <glyph glyph-name="aogonek" unicode="&#x105;" 
d="M566 -188h-13q-127 0 -127 92q0 67 82 98v2q-32 8 -45 30t-13 71h-2q-22 -54 -70.5 -83.5t-113.5 -29.5q-76 0 -121.5 38.5t-45.5 106.5q0 81 70 122q37 20 101 30.5t181 17.5v19q0 41 -4.5 67t-18 50t-42.5 35.5t-75 11.5q-64 0 -99 -29.5t-42 -75.5h-50q6 62 56 104.5
t134 44.5q61 0 101 -17t58.5 -48.5t25 -63t6.5 -74.5v-233q0 -31 10.5 -43t36.5 -12h20v-43q-89 -35 -89 -88q0 -32 21 -44.5t68 -13.5v-42zM151 138q0 -50 33 -76.5t88 -26.5q71 0 123.5 53.5t52.5 144.5v31q-124 -9 -176 -17t-75 -25q-46 -30 -46 -84z" />
    <glyph glyph-name="Cacute" unicode="&#x106;" 
d="M518 552q-7 76 -51 128.5t-131 52.5q-51 0 -88 -17t-61 -46t-38 -75t-19.5 -97.5t-5.5 -118.5q0 -351 215 -351q81 0 126.5 53.5t52.5 127.5h53q-10 -104 -74.5 -164.5t-162.5 -60.5q-267 0 -267 395q0 202 65.5 300t203.5 98q99 0 163.5 -60.5t72.5 -164.5h-54zM376 960
h75l-92 -133h-45z" />
    <glyph glyph-name="cacute" unicode="&#x107;" 
d="M492 386q-7 43 -45 74t-103 31q-86 0 -135.5 -59.5t-49.5 -169.5q0 -231 180 -231q130 0 153 122h53q-14 -82 -69 -124t-139 -42q-115 0 -174.5 71.5t-59.5 197.5q0 123 63 201.5t176 78.5q76 0 134 -37t69 -113h-53zM382 788h78l-104 -179h-44z" />
    <glyph glyph-name="Ccircumflex" unicode="&#x108;" 
d="M518 552q-7 76 -51 128.5t-131 52.5q-51 0 -88 -17t-61 -46t-38 -75t-19.5 -97.5t-5.5 -118.5q0 -351 215 -351q81 0 126.5 53.5t52.5 127.5h53q-10 -104 -74.5 -164.5t-162.5 -60.5q-267 0 -267 395q0 202 65.5 300t203.5 98q99 0 163.5 -60.5t72.5 -164.5h-54zM479 827
h-55l-90 84h-1l-88 -84h-50l110 133h59z" />
    <glyph glyph-name="ccircumflex" unicode="&#x109;" 
d="M492 386q-7 43 -45 74t-103 31q-86 0 -135.5 -59.5t-49.5 -169.5q0 -231 180 -231q130 0 153 122h53q-14 -82 -69 -124t-139 -42q-115 0 -174.5 71.5t-59.5 197.5q0 123 63 201.5t176 78.5q76 0 134 -37t69 -113h-53zM480 609h-52l-93 136h-5l-91 -136h-47l106 179h71z
" />
    <glyph glyph-name="Cdotaccent" unicode="&#x10a;" 
d="M518 552q-7 76 -51 128.5t-131 52.5q-51 0 -88 -17t-61 -46t-38 -75t-19.5 -97.5t-5.5 -118.5q0 -351 215 -351q81 0 126.5 53.5t52.5 127.5h53q-10 -104 -74.5 -164.5t-162.5 -60.5q-267 0 -267 395q0 202 65.5 300t203.5 98q99 0 163.5 -60.5t72.5 -164.5h-54zM291 939
h92v-99h-92v99z" />
    <glyph glyph-name="cdotaccent" unicode="&#x10b;" 
d="M492 386q-7 43 -45 74t-103 31q-86 0 -135.5 -59.5t-49.5 -169.5q0 -231 180 -231q130 0 153 122h53q-14 -82 -69 -124t-139 -42q-115 0 -174.5 71.5t-59.5 197.5q0 123 63 201.5t176 78.5q76 0 134 -37t69 -113h-53zM293 739h92v-99h-92v99z" />
    <glyph glyph-name="Ccaron" unicode="&#x10c;" 
d="M518 552q-7 76 -51 128.5t-131 52.5q-51 0 -88 -17t-61 -46t-38 -75t-19.5 -97.5t-5.5 -118.5q0 -351 215 -351q81 0 126.5 53.5t52.5 127.5h53q-10 -104 -74.5 -164.5t-162.5 -60.5q-267 0 -267 395q0 202 65.5 300t203.5 98q99 0 163.5 -60.5t72.5 -164.5h-54zM196 960
h55l90 -84h1l88 84h50l-110 -133h-59z" />
    <glyph glyph-name="ccaron" unicode="&#x10d;" 
d="M492 386q-7 43 -45 74t-103 31q-86 0 -135.5 -59.5t-49.5 -169.5q0 -231 180 -231q130 0 153 122h53q-14 -82 -69 -124t-139 -42q-115 0 -174.5 71.5t-59.5 197.5q0 123 63 201.5t176 78.5q76 0 134 -37t69 -113h-53zM190 788h52l93 -136h5l91 136h47l-106 -179h-71z" />
    <glyph glyph-name="Dcaron" unicode="&#x10e;" 
d="M80 765h189q63 0 119 -22.5t101.5 -67t72.5 -119.5t27 -171q0 -191 -92 -288t-225 -97h-192v765zM262 47q55 0 100.5 16t85 52t62 104t22.5 163q0 88 -23 154.5t-61.5 105t-85 57.5t-98.5 19h-130v-671h128zM145 960h55l90 -84h1l88 84h50l-110 -133h-59z" />
    <glyph glyph-name="dcaron" unicode="&#x10f;" 
d="M480 314q0 71 -43.5 124t-118.5 53q-87 0 -130 -62.5t-43 -165.5q0 -109 42 -170.5t126 -61.5q81 0 124 54.5t43 125.5v103zM532 0h-49v94h-3q-52 -107 -167 -107q-40 0 -76.5 13t-70.5 42.5t-54.5 85t-20.5 131.5q0 130 61 203t164 73q56 0 98 -26t63 -69h2v348h53v-788
zM620 788h78l-61 -199h-44z" />
    <glyph glyph-name="Dcroat" unicode="&#x110;" 
d="M93 0v370h-77v46h77v349h176q63 0 119 -22.5t101.5 -67t72.5 -119.5t27 -171q0 -191 -92 -288t-225 -97h-179zM262 47q55 0 100.5 16t85 52t62 104t22.5 163q0 88 -23 154.5t-61.5 105t-85 57.5t-98.5 19h-117v-302h207v-46h-207v-323h115z" />
    <glyph glyph-name="dcroat" unicode="&#x111;" 
d="M490 313q0 71 -46 124t-126 53q-90 0 -136.5 -63t-46.5 -165q0 -109 44.5 -170.5t133.5 -61.5q87 0 132 54.5t45 125.5v103zM490 93q-52 -107 -176 -107q-42 0 -80.5 13t-74.5 42.5t-57.5 85t-21.5 131.5q0 131 62.5 203.5t171.5 72.5q61 0 106.5 -27.5t66.5 -77.5h2v207
h-181v42h181v109h53v-109h77v-42h-77v-637h-49v94h-3z" />
    <glyph glyph-name="Emacron" unicode="&#x112;" 
d="M106 765h437v-47h-383v-302h343v-46h-343v-323h386v-47h-440v765zM207 911h270v-49h-270v49z" />
    <glyph glyph-name="emacron" unicode="&#x113;" 
d="M492 296q0 33 -6 63t-22 62t-49.5 51t-81.5 19q-84 0 -130.5 -54t-52.5 -145h342v4zM535 125q-17 -60 -70 -99t-131 -39q-237 0 -237 269q0 125 61.5 202t174.5 77q57 0 100 -21t66 -57t34 -77t11 -87v-42l-395 -1q5 -219 187 -219q35 0 63.5 10.5t45.5 27t26.5 30
t14.5 26.5h49zM197 705h270v-49h-270v49z" />
    <glyph glyph-name="Ebreve" unicode="&#x114;" 
d="M106 765h437v-47h-383v-302h343v-46h-343v-323h386v-47h-440v765zM252 970q11 -92 96 -92q87 0 98 92h46q-6 -71 -46 -105.5t-101 -34.5t-99 34.5t-44 105.5h50z" />
    <glyph glyph-name="ebreve" unicode="&#x115;" 
d="M492 296q0 33 -6 63t-22 62t-49.5 51t-81.5 19q-84 0 -130.5 -54t-52.5 -145h342v4zM535 125q-17 -60 -70 -99t-131 -39q-237 0 -237 269q0 125 61.5 202t174.5 77q57 0 100 -21t66 -57t34 -77t11 -87v-42l-395 -1q5 -219 187 -219q35 0 63.5 10.5t45.5 27t26.5 30
t14.5 26.5h49zM233 783q0 -116 99 -116q101 0 101 116h44q0 -83 -40.5 -123.5t-107.5 -40.5q-66 0 -105 40.5t-39 123.5h48z" />
    <glyph glyph-name="Edotaccent" unicode="&#x116;" 
d="M106 765h437v-47h-383v-302h343v-46h-343v-323h386v-47h-440v765zM299 939h92v-99h-92v99z" />
    <glyph glyph-name="edotaccent" unicode="&#x117;" 
d="M492 296q0 33 -6 63t-22 62t-49.5 51t-81.5 19q-84 0 -130.5 -54t-52.5 -145h342v4zM535 125q-17 -60 -70 -99t-131 -39q-237 0 -237 269q0 125 61.5 202t174.5 77q57 0 100 -21t66 -57t34 -77t11 -87v-42l-395 -1q5 -219 187 -219q35 0 63.5 10.5t45.5 27t26.5 30
t14.5 26.5h49zM288 739h92v-99h-92v99z" />
    <glyph glyph-name="Eogonek" unicode="&#x118;" 
d="M516 -188h-13q-127 0 -127 92q0 58 75 96h-345v765h437v-47h-383v-302h343v-46h-343v-323h386v-47h-30q-89 -35 -89 -88q0 -32 21 -44.5t68 -13.5v-42z" />
    <glyph glyph-name="eogonek" unicode="&#x119;" 
d="M492 296q0 33 -6 63t-22 62t-49.5 51t-81.5 19q-84 0 -130.5 -54t-52.5 -145h342v4zM429 -188h-13q-125 0 -125 87q0 51 65 86v3q-7 -1 -21 -1q-238 0 -238 269q0 125 61.5 202t174.5 77q57 0 100 -21t66 -57t34 -77t11 -87v-42l-395 -1q5 -219 187 -219q35 0 63.5 10.5
t45.5 27t26.5 30t14.5 26.5h49q-22 -75 -92 -113l-38.5 -22.5t-30 -21.5t-25 -27.5t-7.5 -28.5q0 -32 20.5 -45t66.5 -13v-42z" />
    <glyph glyph-name="Ecaron" unicode="&#x11a;" 
d="M106 765h437v-47h-383v-302h343v-46h-343v-323h386v-47h-440v765zM182 960h55l90 -84h1l88 84h50l-110 -133h-59z" />
    <glyph glyph-name="ecaron" unicode="&#x11b;" 
d="M492 296q0 33 -6 63t-22 62t-49.5 51t-81.5 19q-84 0 -130.5 -54t-52.5 -145h342v4zM535 125q-17 -60 -70 -99t-131 -39q-237 0 -237 269q0 125 61.5 202t174.5 77q57 0 100 -21t66 -57t34 -77t11 -87v-42l-395 -1q5 -219 187 -219q35 0 63.5 10.5t45.5 27t26.5 30
t14.5 26.5h49zM182 788h52l93 -136h5l91 136h47l-106 -179h-71z" />
    <glyph glyph-name="Gcircumflex" unicode="&#x11c;" 
d="M344 732q-112 0 -165 -89t-53 -269q0 -183 47.5 -265t159.5 -82q86 0 139 68t53 169v59h-192v48h244v-371h-49v129h-3q-17 -61 -69 -103t-128 -42q-63 0 -108.5 19.5t-80.5 64t-52 122t-17 189.5q0 203 72 300t202 97q103 0 161.5 -61.5t64.5 -153.5h-52q-6 77 -49.5 124
t-124.5 47zM474 827h-55l-90 84h-1l-88 -84h-50l110 133h59z" />
    <glyph glyph-name="gcircumflex" unicode="&#x11d;" 
d="M492 311q0 71 -45 125.5t-133 54.5t-135 -62t-47 -161q0 -101 44 -162.5t137 -61.5q85 0 132 53t47 125v89zM322 -199q-98 0 -151 38t-66 103h53q24 -98 164 -98q72 0 121.5 41t49.5 134v86h-3q-55 -105 -190 -105q-39 0 -76 13.5t-71 43t-55 84t-21 127.5
q0 128 65.5 197.5t171.5 69.5q67 0 113 -31.5t67 -75.5h2v94h49v-494q0 -113 -61.5 -170t-161.5 -57zM463 609h-52l-93 136h-5l-91 -136h-47l106 179h71z" />
    <glyph glyph-name="Gbreve" unicode="&#x11e;" 
d="M344 732q-112 0 -165 -89t-53 -269q0 -183 47.5 -265t159.5 -82q86 0 139 68t53 169v59h-192v48h244v-371h-49v129h-3q-17 -61 -69 -103t-128 -42q-63 0 -108.5 19.5t-80.5 64t-52 122t-17 189.5q0 203 72 300t202 97q103 0 161.5 -61.5t64.5 -153.5h-52q-6 77 -49.5 124
t-124.5 47zM239 970q11 -92 96 -92q87 0 98 92h46q-6 -71 -46 -105.5t-101 -34.5t-99 34.5t-44 105.5h50z" />
    <glyph glyph-name="gbreve" unicode="&#x11f;" 
d="M492 311q0 71 -45 125.5t-133 54.5t-135 -62t-47 -161q0 -101 44 -162.5t137 -61.5q85 0 132 53t47 125v89zM322 -199q-98 0 -151 38t-66 103h53q24 -98 164 -98q72 0 121.5 41t49.5 134v86h-3q-55 -105 -190 -105q-39 0 -76 13.5t-71 43t-55 84t-21 127.5
q0 128 65.5 197.5t171.5 69.5q67 0 113 -31.5t67 -75.5h2v94h49v-494q0 -113 -61.5 -170t-161.5 -57zM232 783q0 -116 99 -116q101 0 101 116h44q0 -83 -40.5 -123.5t-107.5 -40.5q-66 0 -105 40.5t-39 123.5h48z" />
    <glyph glyph-name="Gdotaccent" unicode="&#x120;" 
d="M344 732q-112 0 -165 -89t-53 -269q0 -183 47.5 -265t159.5 -82q86 0 139 68t53 169v59h-192v48h244v-371h-49v129h-3q-17 -61 -69 -103t-128 -42q-63 0 -108.5 19.5t-80.5 64t-52 122t-17 189.5q0 203 72 300t202 97q103 0 161.5 -61.5t64.5 -153.5h-52q-6 77 -49.5 124
t-124.5 47zM286 939h92v-99h-92v99z" />
    <glyph glyph-name="gdotaccent" unicode="&#x121;" 
d="M492 311q0 71 -45 125.5t-133 54.5t-135 -62t-47 -161q0 -101 44 -162.5t137 -61.5q85 0 132 53t47 125v89zM322 -199q-98 0 -151 38t-66 103h53q24 -98 164 -98q72 0 121.5 41t49.5 134v86h-3q-55 -105 -190 -105q-39 0 -76 13.5t-71 43t-55 84t-21 127.5
q0 128 65.5 197.5t171.5 69.5q67 0 113 -31.5t67 -75.5h2v94h49v-494q0 -113 -61.5 -170t-161.5 -57zM282 739h92v-99h-92v99z" />
    <glyph glyph-name="Gcommaaccent" unicode="&#x122;" 
d="M344 732q-112 0 -165 -89t-53 -269q0 -183 47.5 -265t159.5 -82q86 0 139 68t53 169v59h-192v48h244v-371h-49v129h-3q-17 -61 -69 -103t-128 -42q-63 0 -108.5 19.5t-80.5 64t-52 122t-17 189.5q0 203 72 300t202 97q103 0 161.5 -61.5t64.5 -153.5h-52q-6 77 -49.5 124
t-124.5 47zM286 -53h84l-80 -149h-44z" />
    <glyph glyph-name="gcommaaccent" unicode="&#x123;" 
d="M492 311q0 71 -45 125.5t-133 54.5t-135 -62t-47 -161q0 -101 44 -162.5t137 -61.5q85 0 132 53t47 125v89zM322 -199q-98 0 -151 38t-66 103h53q24 -98 164 -98q72 0 121.5 41t49.5 134v86h-3q-55 -105 -190 -105q-39 0 -76 13.5t-71 43t-55 84t-21 127.5
q0 128 65.5 197.5t171.5 69.5q67 0 113 -31.5t67 -75.5h2v94h49v-494q0 -113 -61.5 -170t-161.5 -57zM389 629h-84l83 159h44z" />
    <glyph glyph-name="Hcircumflex" unicode="&#x124;" 
d="M139 0h-54v765h54v-349h362v349h54v-765h-54v370h-362v-370zM462 827h-55l-90 84h-1l-88 -84h-50l110 133h59z" />
    <glyph glyph-name="hcircumflex" unicode="&#x125;" 
d="M473 0v342q0 68 -28 105q-31 42 -102 42q-84 0 -127 -54.5t-43 -130.5v-304h-53v788h53v-362h2q24 53 64.5 81t111.5 28q175 0 175 -197v-338h-53zM483 827h-55l-90 84h-1l-88 -84h-50l110 133h59z" />
    <glyph glyph-name="Hbar" unicode="&#x126;" 
d="M501 416v166h-362v-166h362zM139 0h-54v582h-65v40h65v143h54v-143h362v143h54v-143h65v-40h-65v-582h-54v370h-362v-370z" />
    <glyph glyph-name="hbar" unicode="&#x127;" 
d="M173 0h-53v636h-77v42h77v110h53v-110h181v-42h-181v-210h2q24 53 64.5 81t111.5 28q175 0 175 -197v-338h-53v342q0 68 -28 105q-31 42 -102 42q-84 0 -127 -54.5t-43 -130.5v-304z" />
    <glyph glyph-name="Itilde" unicode="&#x128;" 
d="M347 44h183v-44h-420v44h183v677h-183v44h420v-44h-183v-677zM152 827q0 58 24 96t77 38q23 0 46 -13t38.5 -28.5t34.5 -28.5t35 -13q29 0 39 20.5t13 63.5h46q0 -57 -24 -95.5t-76 -38.5q-30 0 -58.5 21t-53 41.5t-43.5 20.5q-29 0 -39 -20t-13 -64h-46z" />
    <glyph glyph-name="itilde" unicode="&#x129;" 
d="M105 0v43h198v435h-172v44h225v-479h203v-43h-454zM147 627q0 54 25 92.5t75 38.5q29 0 57.5 -20t52.5 -40.5t43 -20.5q30 0 41 19t12 61h45q0 -55 -24.5 -92t-74.5 -37q-30 0 -58.5 20.5t-53 41t-42.5 20.5q-28 0 -40 -21t-13 -62h-45z" />
    <glyph glyph-name="Imacron" unicode="&#x12a;" 
d="M347 44h183v-44h-420v44h183v677h-183v44h420v-44h-183v-677zM186 911h270v-49h-270v49z" />
    <glyph glyph-name="imacron" unicode="&#x12b;" 
d="M105 0v43h198v435h-172v44h225v-479h203v-43h-454zM176 705h270v-49h-270v49z" />
    <glyph glyph-name="Ibreve" unicode="&#x12c;" 
d="M347 44h183v-44h-420v44h183v677h-183v44h420v-44h-183v-677zM227 970q11 -92 96 -92q87 0 98 92h46q-6 -71 -46 -105.5t-101 -34.5t-99 34.5t-44 105.5h50z" />
    <glyph glyph-name="ibreve" unicode="&#x12d;" 
d="M105 0v43h198v435h-172v44h225v-479h203v-43h-454zM228 783q0 -116 99 -116q101 0 101 116h44q0 -83 -40.5 -123.5t-107.5 -40.5q-66 0 -105 40.5t-39 123.5h48z" />
    <glyph glyph-name="Iogonek" unicode="&#x12e;" 
d="M497 -188h-13q-127 0 -127 92q0 58 75 96h-322v44h183v677h-183v44h420v-44h-183v-677h183v-44h-33q-89 -35 -89 -88q0 -32 21 -44.5t68 -13.5v-42z" />
    <glyph glyph-name="iogonek" unicode="&#x12f;" 
d="M277 739h92v-99h-92v99zM525 -188h-13q-127 0 -127 92q0 58 75 96h-355v43h198v435h-172v44h225v-479h203v-43h-34q-89 -35 -89 -88q0 -32 21 -44.5t68 -13.5v-42z" />
    <glyph glyph-name="Idotaccent" unicode="&#x130;" 
d="M347 44h183v-44h-420v44h183v677h-183v44h420v-44h-183v-677zM274 939h92v-99h-92v99z" />
    <glyph glyph-name="dotlessi" unicode="&#x131;" 
d="M105 0v43h198v435h-172v44h225v-479h203v-43h-454z" />
    <glyph glyph-name="IJ" unicode="&#x132;" horiz-adv-x="1280" 
d="M347 44h183v-44h-420v44h183v677h-183v44h420v-44h-183v-677zM903 -8q-94 0 -147 20v50q69 -21 147 -21q87 0 130 42.5t43 144.5v491h-276v46h330v-545q0 -116 -61 -172t-166 -56z" />
    <glyph glyph-name="ij" unicode="&#x133;" horiz-adv-x="1280" 
d="M277 739h92v-99h-92v99zM105 0v43h198v435h-172v44h225v-479h203v-43h-454zM972 640v99h92v-99h-92zM891 -195q-59 0 -108 15v47q53 -15 108 -15q57 0 82 24t25 85v518h-215v43h268v-567q0 -74 -42 -112t-118 -38z" />
    <glyph glyph-name="Jcircumflex" unicode="&#x134;" 
d="M263 -8q-94 0 -147 20v50q69 -21 147 -21q87 0 130 42.5t43 144.5v491h-276v46h330v-545q0 -116 -61 -172t-166 -56zM477 827h-55l-90 84h-1l-88 -84h-50l110 133h59z" />
    <glyph glyph-name="jcircumflex" unicode="&#x135;" 
d="M268 -195q-55 0 -114 21v48q66 -23 110 -23q51 0 72.5 25t21.5 91v510h-172v45h225v-568q0 -149 -143 -149zM512 609h-52l-93 136h-5l-91 -136h-47l106 179h71z" />
    <glyph glyph-name="Kcommaaccent" unicode="&#x136;" 
d="M161 0h-54v765h54v-432l351 432h66l-266 -326l303 -439h-66l-275 400l-113 -139v-261zM306 -53h84l-80 -149h-44z" />
    <glyph glyph-name="kcommaaccent" unicode="&#x137;" 
d="M202 0h-53v788h53v-546l271 280h65l-191 -198l230 -324h-63l-205 286l-107 -110v-176zM311 -53h84l-80 -149h-44z" />
    <glyph glyph-name="kgreenlandic" unicode="&#x138;" 
d="M202 0h-53v522h53v-280l271 280h65l-191 -198l230 -324h-63l-205 286l-107 -110v-176z" />
    <glyph glyph-name="Lacute" unicode="&#x139;" 
d="M133 765h54v-718h397v-47h-451v765zM203 960h75l-92 -133h-45z" />
    <glyph glyph-name="lacute" unicode="&#x13a;" 
d="M92 0v43h201v700h-164v45h217v-745h203v-43h-457zM363 960h75l-92 -133h-45z" />
    <glyph glyph-name="Lcommaaccent" unicode="&#x13b;" 
d="M133 765h54v-718h397v-47h-451v765zM318 -53h84l-80 -149h-44z" />
    <glyph glyph-name="lcommaaccent" unicode="&#x13c;" 
d="M92 0v43h201v700h-164v45h217v-745h203v-43h-457zM276 -53h84l-80 -149h-44z" />
    <glyph glyph-name="Lcaron" unicode="&#x13d;" 
d="M133 765h54v-718h397v-47h-451v765zM323 788h78l-61 -199h-44z" />
    <glyph glyph-name="lcaron" unicode="&#x13e;" 
d="M92 0v43h201v700h-164v45h217v-745h203v-43h-457zM473 788h78l-61 -199h-44z" />
    <glyph glyph-name="Ldot" unicode="&#x13f;" 
d="M133 765h54v-718h397v-47h-451v765zM434 439h92v-99h-92v99z" />
    <glyph glyph-name="ldot" unicode="&#x140;" 
d="M92 0v43h201v700h-164v45h217v-745h203v-43h-457zM593 431h92v-99h-92v99z" />
    <glyph glyph-name="Lslash" unicode="&#x141;" 
d="M138 0v303l-99 -48v51l99 49v410h54v-384l268 132v-52l-268 -131v-283h397v-47h-451z" />
    <glyph glyph-name="lslash" unicode="&#x142;" 
d="M92 0v43h201v303l-165 -87v49l165 87v348h-164v45h217v-365l171 91v-50l-171 -90v-331h203v-43h-457z" />
    <glyph glyph-name="Nacute" unicode="&#x143;" 
d="M84 765h77l300 -613q9 -18 18.5 -42.5t10.5 -27.5q6 -18 8 -25h6v708h52v-765h-77l-290 592q-22 42 -35 80l-7.5 21t-5.5 15h-5v-708h-52v765zM374 960h75l-92 -133h-45z" />
    <glyph glyph-name="nacute" unicode="&#x144;" 
d="M473 342q0 68 -28 105q-31 42 -102 42q-84 0 -127 -54.5t-43 -130.5v-304h-53v522h49v-96h2q27 52 68 80.5t112 28.5q175 0 175 -197v-338h-53v342zM384 788h78l-104 -179h-44z" />
    <glyph glyph-name="Ncommaaccent" unicode="&#x145;" 
d="M84 765h77l300 -613q9 -18 18.5 -42.5t10.5 -27.5q6 -18 8 -25h6v708h52v-765h-77l-290 592q-22 42 -35 80l-7.5 21t-5.5 15h-5v-708h-52v765zM284 -53h84l-80 -149h-44z" />
    <glyph glyph-name="ncommaaccent" unicode="&#x146;" 
d="M473 342q0 68 -28 105q-31 42 -102 42q-84 0 -127 -54.5t-43 -130.5v-304h-53v522h49v-96h2q27 52 68 80.5t112 28.5q175 0 175 -197v-338h-53v342zM286 -53h84l-80 -149h-44z" />
    <glyph glyph-name="Ncaron" unicode="&#x147;" 
d="M84 765h77l300 -613q9 -18 18.5 -42.5t10.5 -27.5q6 -18 8 -25h6v708h52v-765h-77l-290 592q-22 42 -35 80l-7.5 21t-5.5 15h-5v-708h-52v765zM185 960h55l90 -84h1l88 84h50l-110 -133h-59z" />
    <glyph glyph-name="ncaron" unicode="&#x148;" 
d="M473 342q0 68 -28 105q-31 42 -102 42q-84 0 -127 -54.5t-43 -130.5v-304h-53v522h49v-96h2q27 52 68 80.5t112 28.5q175 0 175 -197v-338h-53v342zM191 788h52l93 -136h5l91 136h47l-106 -179h-71z" />
    <glyph glyph-name="napostrophe" unicode="&#x149;" 
d="M78 537h-50l52 228h83zM473 342q0 68 -28 105q-31 42 -102 42q-84 0 -127 -54.5t-43 -130.5v-304h-53v522h49v-96h2q27 52 68 80.5t112 28.5q175 0 175 -197v-338h-53v342z" />
    <glyph glyph-name="Eng" unicode="&#x14a;" 
d="M307 -188v46h12q109 0 146.5 35t37.5 107h-24l-290 592q-26 53 -35 80q-8 18 -12 36h-6v-708h-52v765h77l300 -613q9 -18 18.5 -42.5t10.5 -27.5q6 -18 8 -25h6v708h52v-748q0 -47 -8 -79.5t-30.5 -63.5t-70 -46.5t-120.5 -15.5h-20z" />
    <glyph glyph-name="eng" unicode="&#x14b;" 
d="M397 -195q-25 0 -51 5v45q22 -5 51 -5q42 0 59 23t17 75v394q0 68 -28 105q-31 42 -102 42q-84 0 -127 -54.5t-43 -130.5v-304h-53v522h49v-96h2q27 52 68 80.5t112 28.5q175 0 175 -197v-402q0 -63 -34 -97t-95 -34z" />
    <glyph glyph-name="Omacron" unicode="&#x14c;" 
d="M59 380q0 396 262 396q129 0 194.5 -91.5t65.5 -304.5q0 -396 -262 -396q-131 0 -195.5 91.5t-64.5 304.5zM320 27q105 0 154.5 83.5t49.5 269.5q0 193 -47 273t-157 80q-103 0 -153.5 -83.5t-50.5 -269.5t48 -269.5t156 -83.5zM186 911h270v-49h-270v49z" />
    <glyph glyph-name="omacron" unicode="&#x14d;" 
d="M320 -13q-112 0 -173 74.5t-61 199.5t61 199.5t173 74.5t173 -74.5t61 -199.5t-61 -199.5t-173 -74.5zM320 492q-88 0 -134.5 -62t-46.5 -169q0 -108 45.5 -169.5t135.5 -61.5q88 0 134.5 62t46.5 169t-46.5 169t-134.5 62zM186 705h270v-49h-270v49z" />
    <glyph glyph-name="Obreve" unicode="&#x14e;" 
d="M59 380q0 396 262 396q129 0 194.5 -91.5t65.5 -304.5q0 -396 -262 -396q-131 0 -195.5 91.5t-64.5 304.5zM320 27q105 0 154.5 83.5t49.5 269.5q0 193 -47 273t-157 80q-103 0 -153.5 -83.5t-50.5 -269.5t48 -269.5t156 -83.5zM227 970q11 -92 96 -92q87 0 98 92h46
q-6 -71 -46 -105.5t-101 -34.5t-99 34.5t-44 105.5h50z" />
    <glyph glyph-name="obreve" unicode="&#x14f;" 
d="M320 -13q-112 0 -173 74.5t-61 199.5t61 199.5t173 74.5t173 -74.5t61 -199.5t-61 -199.5t-173 -74.5zM320 492q-88 0 -134.5 -62t-46.5 -169q0 -108 45.5 -169.5t135.5 -61.5q88 0 134.5 62t46.5 169t-46.5 169t-134.5 62zM225 783q0 -116 99 -116q101 0 101 116h44
q0 -83 -40.5 -123.5t-107.5 -40.5q-66 0 -105 40.5t-39 123.5h48z" />
    <glyph glyph-name="Ohungarumlaut" unicode="&#x150;" 
d="M59 380q0 396 262 396q129 0 194.5 -91.5t65.5 -304.5q0 -396 -262 -396q-131 0 -195.5 91.5t-64.5 304.5zM320 27q105 0 154.5 83.5t49.5 269.5q0 193 -47 273t-157 80q-103 0 -153.5 -83.5t-50.5 -269.5t48 -269.5t156 -83.5zM413 970h68l-71 -143h-38zM267 970h68
l-71 -143h-38z" />
    <glyph glyph-name="ohungarumlaut" unicode="&#x151;" 
d="M320 -13q-112 0 -173 74.5t-61 199.5t61 199.5t173 74.5t173 -74.5t61 -199.5t-61 -199.5t-173 -74.5zM320 492q-88 0 -134.5 -62t-46.5 -169q0 -108 45.5 -169.5t135.5 -61.5q88 0 134.5 62t46.5 169t-46.5 169t-134.5 62zM439 788h71l-89 -179h-44zM289 788h71
l-89 -179h-44z" />
    <glyph glyph-name="OE" unicode="&#x152;" 
d="M330 722q-119 0 -176.5 -80.5t-57.5 -259.5q0 -178 55 -259t179 -81v680zM330 0q-147 0 -219 87.5t-72 294.5q0 383 291 383h282v-47h-232v-302h192v-46h-192v-323h235v-47h-285z" />
    <glyph glyph-name="oe" unicode="&#x153;" 
d="M563 301q-1 102 -25.5 146.5t-79.5 44.5t-82 -46.5t-30 -152.5h217v8zM182 30q56 0 84 61.5t28 169.5q0 109 -27 170t-82 61q-57 0 -84 -54t-27 -177q0 -122 26 -176.5t82 -54.5zM609 125q-13 -60 -52 -99t-97 -39q-108 0 -141 120h-2q-37 -120 -135 -120
q-162 0 -162 274q0 137 39.5 205.5t124.5 68.5q102 0 134 -121h2q33 121 138 121q81 0 119.5 -59.5t38.5 -182.5v-42l-271 -1q5 -218 119 -218q42 0 64.5 30t29.5 63h51z" />
    <glyph glyph-name="Racute" unicode="&#x154;" 
d="M339 372q82 0 135 45t53 136q0 80 -49 122.5t-143 42.5h-191v-346h195zM353 327h-209v-327h-54v765h241q94 0 153 -33q97 -54 97 -178q0 -88 -46 -143t-126 -74v-2l181 -335h-61zM335 960h75l-92 -133h-45z" />
    <glyph glyph-name="racute" unicode="&#x155;" 
d="M406 482q-84 0 -136.5 -50.5t-52.5 -151.5v-280h-53v522h49v-124h2q16 57 64.5 95.5t129.5 38.5q74 0 121 -25v-51q-54 26 -124 26zM398 788h78l-104 -179h-44z" />
    <glyph glyph-name="Rcommaaccent" unicode="&#x156;" 
d="M339 372q82 0 135 45t53 136q0 80 -49 122.5t-143 42.5h-191v-346h195zM353 327h-209v-327h-54v765h241q94 0 153 -33q97 -54 97 -178q0 -88 -46 -143t-126 -74v-2l181 -335h-61zM292 -53h84l-80 -149h-44z" />
    <glyph glyph-name="rcommaaccent" unicode="&#x157;" 
d="M406 482q-84 0 -136.5 -50.5t-52.5 -151.5v-280h-53v522h49v-124h2q16 57 64.5 95.5t129.5 38.5q74 0 121 -25v-51q-54 26 -124 26zM148 -53h84l-80 -149h-44z" />
    <glyph glyph-name="Rcaron" unicode="&#x158;" 
d="M339 372q82 0 135 45t53 136q0 80 -49 122.5t-143 42.5h-191v-346h195zM353 327h-209v-327h-54v765h241q94 0 153 -33q97 -54 97 -178q0 -88 -46 -143t-126 -74v-2l181 -335h-61zM173 960h55l90 -84h1l88 84h50l-110 -133h-59z" />
    <glyph glyph-name="rcaron" unicode="&#x159;" 
d="M406 482q-84 0 -136.5 -50.5t-52.5 -151.5v-280h-53v522h49v-124h2q16 57 64.5 95.5t129.5 38.5q74 0 121 -25v-51q-54 26 -124 26zM205 788h52l93 -136h5l91 136h47l-106 -179h-71z" />
    <glyph glyph-name="Sacute" unicode="&#x15a;" 
d="M503 562q-15 169 -176 169q-80 0 -129.5 -39.5t-49.5 -116.5q0 -67 32 -98.5t103 -48.5l114 -27q95 -22 135.5 -67t40.5 -130q0 -96 -67.5 -157t-189.5 -61q-114 0 -173.5 61t-72.5 162h49q24 -180 204 -180q98 0 147 49.5t49 121.5q0 65 -29.5 99t-104.5 52l-115 27
q-94 21 -134.5 68.5t-40.5 128.5q0 94 65 147.5t167 53.5q107 0 164 -56t64 -158h-52zM364 960h75l-92 -133h-45z" />
    <glyph glyph-name="sacute" unicode="&#x15b;" 
d="M461 401q-12 47 -45 69.5t-97 22.5t-101 -26.5t-37 -77.5q0 -47 27 -68t84 -27l87 -10q81 -9 116 -43.5t35 -94.5q0 -72 -55.5 -115.5t-158.5 -43.5q-195 0 -210 158h51q8 -60 47 -88t112 -28q74 0 118.5 29.5t44.5 85.5q0 42 -23.5 64t-81.5 29l-95 11q-73 9 -111 41.5
t-38 97.5t49 106.5t141 41.5q83 0 132.5 -35t60.5 -99h-52zM369 788h78l-104 -179h-44z" />
    <glyph glyph-name="Scircumflex" unicode="&#x15c;" 
d="M503 562q-15 169 -176 169q-80 0 -129.5 -39.5t-49.5 -116.5q0 -67 32 -98.5t103 -48.5l114 -27q95 -22 135.5 -67t40.5 -130q0 -96 -67.5 -157t-189.5 -61q-114 0 -173.5 61t-72.5 162h49q24 -180 204 -180q98 0 147 49.5t49 121.5q0 65 -29.5 99t-104.5 52l-115 27
q-94 21 -134.5 68.5t-40.5 128.5q0 94 65 147.5t167 53.5q107 0 164 -56t64 -158h-52zM468 827h-55l-90 84h-1l-88 -84h-50l110 133h59z" />
    <glyph glyph-name="scircumflex" unicode="&#x15d;" 
d="M461 401q-12 47 -45 69.5t-97 22.5t-101 -26.5t-37 -77.5q0 -47 27 -68t84 -27l87 -10q81 -9 116 -43.5t35 -94.5q0 -72 -55.5 -115.5t-158.5 -43.5q-195 0 -210 158h51q8 -60 47 -88t112 -28q74 0 118.5 29.5t44.5 85.5q0 42 -23.5 64t-81.5 29l-95 11q-73 9 -111 41.5
t-38 97.5t49 106.5t141 41.5q83 0 132.5 -35t60.5 -99h-52zM467 609h-52l-93 136h-5l-91 -136h-47l106 179h71z" />
    <glyph glyph-name="Scedilla" unicode="&#x15e;" 
d="M329 -215q-42 0 -63.5 19.5t-22.5 47.5h47q5 -17 14 -23t28 -6q22 0 35 12t13 35q0 21 -12 33t-33 12q-24 0 -41 -14h-42l36 86q-100 8 -154 68.5t-64 153.5h49q24 -180 204 -180q98 0 147 49.5t49 121.5q0 65 -29.5 99t-104.5 52l-115 27q-94 21 -134.5 68.5
t-40.5 128.5q0 94 65 147.5t167 53.5q107 0 164 -56t64 -158h-52q-15 169 -176 169q-80 0 -129.5 -39.5t-49.5 -116.5q0 -67 32 -98.5t103 -48.5l114 -27q95 -22 135.5 -67t40.5 -130q0 -95 -65 -155.5t-184 -62.5l-16 -36h38q37 0 59.5 -20.5t22.5 -55.5q0 -37 -26 -63
t-73 -26z" />
    <glyph glyph-name="scedilla" unicode="&#x15f;" 
d="M317 -215q-42 0 -63.5 19.5t-22.5 47.5h47q5 -17 14 -23t28 -6q22 0 35 12t13 35q0 21 -12 33t-33 12q-24 0 -41 -14h-42l36 88q-155 14 -170 156h51q8 -60 47 -88t112 -28q74 0 118.5 29.5t44.5 85.5q0 42 -23.5 64t-81.5 29l-95 11q-73 9 -111 41.5t-38 97.5t49 106.5
t141 41.5q83 0 132.5 -35t60.5 -99h-52q-12 47 -45 69.5t-97 22.5t-101 -26.5t-37 -77.5q0 -47 27 -68t84 -27l87 -10q81 -9 116 -43.5t35 -94.5q0 -72 -55.5 -115.5t-158.5 -43.5h-4l-16 -37h38q37 0 59.5 -20.5t22.5 -55.5q0 -37 -26 -63t-73 -26z" />
    <glyph glyph-name="Scaron" unicode="&#x160;" 
d="M503 562q-15 169 -176 169q-80 0 -129.5 -39.5t-49.5 -116.5q0 -67 32 -98.5t103 -48.5l114 -27q95 -22 135.5 -67t40.5 -130q0 -96 -67.5 -157t-189.5 -61q-114 0 -173.5 61t-72.5 162h49q24 -180 204 -180q98 0 147 49.5t49 121.5q0 65 -29.5 99t-104.5 52l-115 27
q-94 21 -134.5 68.5t-40.5 128.5q0 94 65 147.5t167 53.5q107 0 164 -56t64 -158h-52zM180 960h55l90 -84h1l88 84h50l-110 -133h-59z" />
    <glyph glyph-name="scaron" unicode="&#x161;" 
d="M461 401q-12 47 -45 69.5t-97 22.5t-101 -26.5t-37 -77.5q0 -47 27 -68t84 -27l87 -10q81 -9 116 -43.5t35 -94.5q0 -72 -55.5 -115.5t-158.5 -43.5q-195 0 -210 158h51q8 -60 47 -88t112 -28q74 0 118.5 29.5t44.5 85.5q0 42 -23.5 64t-81.5 29l-95 11q-73 9 -111 41.5
t-38 97.5t49 106.5t141 41.5q83 0 132.5 -35t60.5 -99h-52zM175 788h52l93 -136h5l91 136h47l-106 -179h-71z" />
    <glyph glyph-name="Tcommaaccent" unicode="&#x162;" 
d="M599 719h-252v-719h-54v719h-252v46h558v-46zM277 -53h84l-80 -149h-44z" />
    <glyph glyph-name="tcommaaccent" unicode="&#x163;" 
d="M258 479h-194v43h132q41 0 52.5 13t11.5 56v91h51v-160h229v-43h-229v-348q0 -97 109 -97q68 0 120 17v-45q-56 -18 -121 -18q-88 0 -124.5 37t-36.5 110v344zM355 -53h84l-80 -149h-44z" />
    <glyph glyph-name="Tcaron" unicode="&#x164;" 
d="M599 719h-252v-719h-54v719h-252v46h558v-46zM178 960h55l90 -84h1l88 84h50l-110 -133h-59z" />
    <glyph glyph-name="tcaron" unicode="&#x165;" 
d="M258 479h-194v43h132q41 0 52.5 13t11.5 56v91h51v-160h229v-43h-229v-348q0 -97 109 -97q68 0 120 17v-45q-56 -18 -121 -18q-88 0 -124.5 37t-36.5 110v344zM421 788h78l-61 -199h-44z" />
    <glyph glyph-name="Tbar" unicode="&#x166;" 
d="M347 0h-54v453h-182v42h182v224h-252v46h558v-46h-252v-224h182v-42h-182v-453z" />
    <glyph glyph-name="tbar" unicode="&#x167;" 
d="M540 6q-56 -18 -121 -18q-88 0 -124.5 37t-36.5 110v133h-194v43h194v168h-194v43h132q41 0 52.5 13t11.5 56v91h51v-160h229v-43h-229v-168h229v-43h-229v-137q0 -97 109 -97q68 0 120 17v-45z" />
    <glyph glyph-name="Utilde" unicode="&#x168;" 
d="M79 765h55v-519q0 -106 43 -158.5t146 -52.5q102 0 143.5 52.5t41.5 158.5v519h53v-526q0 -135 -62 -194.5t-179 -59.5q-118 0 -179.5 60t-61.5 195v525zM155 827q0 58 24 96t77 38q23 0 46 -13t38.5 -28.5t34.5 -28.5t35 -13q29 0 39 20.5t13 63.5h46q0 -57 -24 -95.5
t-76 -38.5q-30 0 -58.5 21t-53 41.5t-43.5 20.5q-29 0 -39 -20t-13 -64h-46z" />
    <glyph glyph-name="utilde" unicode="&#x169;" 
d="M166 177q0 -70 27 -106q31 -39 105 -39q79 0 122.5 58t43.5 151v281h53v-522h-49v102h-2q-22 -51 -67 -83t-110 -32q-94 0 -135 46.5t-41 137.5v351h53v-345zM146 627q0 54 25 92.5t75 38.5q29 0 57.5 -20t52.5 -40.5t43 -20.5q30 0 41 19t12 61h45q0 -55 -24.5 -92
t-74.5 -37q-30 0 -58.5 20.5t-53 41t-42.5 20.5q-28 0 -40 -21t-13 -62h-45z" />
    <glyph glyph-name="Umacron" unicode="&#x16a;" 
d="M79 765h55v-519q0 -106 43 -158.5t146 -52.5q102 0 143.5 52.5t41.5 158.5v519h53v-526q0 -135 -62 -194.5t-179 -59.5q-118 0 -179.5 60t-61.5 195v525zM189 911h270v-49h-270v49z" />
    <glyph glyph-name="umacron" unicode="&#x16b;" 
d="M166 177q0 -70 27 -106q31 -39 105 -39q79 0 122.5 58t43.5 151v281h53v-522h-49v102h-2q-22 -51 -67 -83t-110 -32q-94 0 -135 46.5t-41 137.5v351h53v-345zM188 705h270v-49h-270v49z" />
    <glyph glyph-name="Ubreve" unicode="&#x16c;" 
d="M79 765h55v-519q0 -106 43 -158.5t146 -52.5q102 0 143.5 52.5t41.5 158.5v519h53v-526q0 -135 -62 -194.5t-179 -59.5q-118 0 -179.5 60t-61.5 195v525zM230 970q11 -92 96 -92q87 0 98 92h46q-6 -71 -46 -105.5t-101 -34.5t-99 34.5t-44 105.5h50z" />
    <glyph glyph-name="ubreve" unicode="&#x16d;" 
d="M166 177q0 -70 27 -106q31 -39 105 -39q79 0 122.5 58t43.5 151v281h53v-522h-49v102h-2q-22 -51 -67 -83t-110 -32q-94 0 -135 46.5t-41 137.5v351h53v-345zM227 783q0 -116 99 -116q101 0 101 116h44q0 -83 -40.5 -123.5t-107.5 -40.5q-66 0 -105 40.5t-39 123.5h48z
" />
    <glyph glyph-name="Uring" unicode="&#x16e;" 
d="M79 765h55v-519q0 -106 43 -158.5t146 -52.5q102 0 143.5 52.5t41.5 158.5v519h53v-526q0 -135 -62 -194.5t-179 -59.5q-118 0 -179.5 60t-61.5 195v525zM324 786q-54 0 -87 33t-33 87t33 88t87 34q56 0 88.5 -33.5t32.5 -88.5q0 -53 -33.5 -86.5t-87.5 -33.5zM324 991
q-35 0 -56 -24t-21 -61t20.5 -59.5t56.5 -22.5q35 0 56 22.5t21 59.5q0 38 -20 61.5t-57 23.5z" />
    <glyph glyph-name="uring" unicode="&#x16f;" 
d="M166 177q0 -70 27 -106q31 -39 105 -39q79 0 122.5 58t43.5 151v281h53v-522h-49v102h-2q-22 -51 -67 -83t-110 -32q-94 0 -135 46.5t-41 137.5v351h53v-345zM200 701q0 54 33 88t87 34q56 0 88.5 -33.5t32.5 -88.5q0 -53 -33.5 -86.5t-87.5 -33.5t-87 33t-33 87z
M320 619q35 0 56 22.5t21 59.5q0 38 -20 61.5t-57 23.5q-35 0 -56 -24t-21 -61t20.5 -59.5t56.5 -22.5z" />
    <glyph glyph-name="Uhungarumlaut" unicode="&#x170;" 
d="M79 765h55v-519q0 -106 43 -158.5t146 -52.5q102 0 143.5 52.5t41.5 158.5v519h53v-526q0 -135 -62 -194.5t-179 -59.5q-118 0 -179.5 60t-61.5 195v525zM407 970h68l-71 -143h-38zM261 970h68l-71 -143h-38z" />
    <glyph glyph-name="uhungarumlaut" unicode="&#x171;" 
d="M166 177q0 -70 27 -106q31 -39 105 -39q79 0 122.5 58t43.5 151v281h53v-522h-49v102h-2q-22 -51 -67 -83t-110 -32q-94 0 -135 46.5t-41 137.5v351h53v-345zM431 788h71l-89 -179h-44zM281 788h71l-89 -179h-44z" />
    <glyph glyph-name="Uogonek" unicode="&#x172;" 
d="M394 -188q-127 0 -127 92q0 26 12 44.5t42 35.5v2q-119 0 -180.5 59t-61.5 195v525h55v-519q0 -106 43 -158.5t146 -52.5q102 0 143.5 52.5t41.5 158.5v519h53v-526q0 -202 -148 -243q-51 -14 -73 -32.5t-22 -47.5q0 -32 21.5 -46.5t67.5 -15.5v-42h-13z" />
    <glyph glyph-name="uogonek" unicode="&#x173;" 
d="M504 -188q-127 0 -127 92q0 65 91 104v94h-2q-22 -51 -67 -83t-110 -32q-94 0 -135 46.5t-41 137.5v351h53v-345q0 -70 27 -106q31 -39 105 -39q79 0 122.5 58t43.5 151v281h53v-522q-89 -35 -89 -88q0 -32 21 -44.5t68 -13.5v-42h-13z" />
    <glyph glyph-name="Wcircumflex" unicode="&#x174;" 
d="M138 0l-97 765h49l88 -701h4q2 12 3 19l3 18t3 17l101 487h60l100 -488q4 -16 6 -35q0 -3 0.5 -9t1.5 -9h5l86 701h47l-96 -765h-73l-95 469q-3 12 -5.5 31.5t-3.5 24.5q-2 16 -2 23h-6q0 -7 -2 -23q-1 -7 -4 -26t-5 -30l-95 -469h-73zM463 827h-55l-90 84h-1l-88 -84
h-50l110 133h59z" />
    <glyph glyph-name="wcircumflex" unicode="&#x175;" 
d="M158 0l-118 522h52l88 -414q1 -6 2.5 -17t3.5 -16q2 -10 3 -14h3l10 48l89 413h62l88 -413q2 -5 3.5 -15t2.5 -15l3 -18h3l9 48l88 413h50l-118 -522h-63l-82 380l-11 53q-2 8 -4 24h-3l-5 -25q-2 -12 -11 -52l-80 -380h-65zM469 609h-52l-93 136h-5l-91 -136h-47
l106 179h71z" />
    <glyph glyph-name="Ycircumflex" unicode="&#x176;" 
d="M294 345l-248 420h61l214 -375h1l215 375h58l-247 -417v-348h-54v345zM466 827h-55l-90 84h-1l-88 -84h-50l110 133h59z" />
    <glyph glyph-name="ycircumflex" unicode="&#x177;" 
d="M96 522h54l147 -383q19 -52 20 -54l5.5 -14t4.5 -14h2q3 9 9 29q10 34 19 53l146 383h53l-223 -571q-32 -84 -70 -117t-103 -33q-29 0 -70 11v45q33 -12 71 -12q47 0 72 23.5t44 73.5l24 57zM481 609h-52l-93 136h-5l-91 -136h-47l106 179h71z" />
    <glyph glyph-name="Ydieresis" unicode="&#x178;" 
d="M294 345l-248 420h61l214 -375h1l215 375h58l-247 -417v-348h-54v345zM373 939h92v-99h-92v99zM185 939h92v-99h-92v99z" />
    <glyph glyph-name="Zacute" unicode="&#x179;" 
d="M76 765h504v-42l-456 -678h461v-45h-523v42l456 678h-442v45zM373 960h75l-92 -133h-45z" />
    <glyph glyph-name="zacute" unicode="&#x17a;" 
d="M123 522h402v-45l-359 -431h367v-46h-427v46l356 430h-339v46zM369 788h78l-104 -179h-44z" />
    <glyph glyph-name="Zdotaccent" unicode="&#x17b;" 
d="M76 765h504v-42l-456 -678h461v-45h-523v42l456 678h-442v45zM279 939h92v-99h-92v99z" />
    <glyph glyph-name="zdotaccent" unicode="&#x17c;" 
d="M123 522h402v-45l-359 -431h367v-46h-427v46l356 430h-339v46zM283 739h92v-99h-92v99z" />
    <glyph glyph-name="Zcaron" unicode="&#x17d;" 
d="M76 765h504v-42l-456 -678h461v-45h-523v42l456 678h-442v45zM184 960h55l90 -84h1l88 84h50l-110 -133h-59z" />
    <glyph glyph-name="zcaron" unicode="&#x17e;" 
d="M123 522h402v-45l-359 -431h367v-46h-427v46l356 430h-339v46zM181 788h52l93 -136h5l91 136h47l-106 -179h-71z" />
    <glyph glyph-name="florin" unicode="&#x192;" 
d="M248 -188h-50l79 568h-216v43h222l32 230q9 68 56 103.5t110 35.5q55 0 94 -14v-46q-49 15 -90 15q-106 0 -121 -106l-31 -218h242v-43h-248z" />
    <glyph glyph-name="Aringacute" unicode="&#x1fa;" 
d="M312 710q0 -1 -1.5 -9t-4 -18l-6.5 -26l-8 -31l-94 -314h238l-95 315q-9 31 -15 59q-4 20 -5 24h-9zM449 267h-265l-82 -267h-53l234 765h70l233 -765h-58zM321 794q-54 0 -87 33t-33 87t33 88t87 34q56 0 88.5 -33.5t32.5 -88.5q0 -53 -33.5 -86.5t-87.5 -33.5zM321 999
q-35 0 -56 -24t-21 -61t20.5 -59.5t56.5 -22.5q35 0 56 22.5t21 59.5q0 38 -20 61.5t-57 23.5zM366 1194h75l-92 -133h-45z" />
    <glyph glyph-name="aringacute" unicode="&#x1fb;" 
d="M151 138q0 -50 33 -76.5t88 -26.5q71 0 123.5 53.5t52.5 144.5v31q-124 -9 -176 -17t-75 -25q-46 -30 -46 -84zM448 105q-22 -54 -70.5 -83.5t-113.5 -29.5q-76 0 -121.5 38.5t-45.5 106.5q0 81 70 122q37 20 101 30.5t181 17.5v19q0 41 -4.5 67t-18 50t-42.5 35.5
t-75 11.5q-64 0 -99 -29.5t-42 -75.5h-50q6 62 56 104.5t134 44.5q61 0 101 -17t58.5 -48.5t25 -63t6.5 -74.5v-234q0 -30 10.5 -42t36.5 -12h20v-43h-21q-54 0 -75 25t-20 80h-2zM195 701q0 54 33 88t87 34q56 0 88.5 -33.5t32.5 -88.5q0 -53 -33.5 -86.5t-87.5 -33.5
t-87 33t-33 87zM315 619q35 0 56 22.5t21 59.5q0 38 -20 61.5t-57 23.5q-35 0 -56 -24t-21 -61t20.5 -59.5t56.5 -22.5zM357 992h75l-92 -133h-45z" />
    <glyph glyph-name="AEacute" unicode="&#x1fc;" 
d="M338 718h-18l-154 -428h172v428zM61 0h-52l280 765h333v-47h-234v-302h194v-46h-194v-323h237v-47h-287v247h-188zM454 960h75l-92 -133h-45z" />
    <glyph glyph-name="aeacute" unicode="&#x1fd;" 
d="M558 299q0 91 -23.5 142t-84.5 51t-86.5 -52t-27.5 -148h222v7zM603 125q-13 -61 -53 -98t-99 -37q-63 0 -96 31t-46 91h-4q-20 -63 -57 -92.5t-94 -29.5q-62 0 -98 38.5t-36 104.5q0 97 71 132q33 16 69 21.5t129 5.5v75q0 125 -98 125q-47 0 -73.5 -29t-26.5 -76h-50
q0 62 40.5 105t108.5 43q55 0 87 -28t42 -67h4q35 95 131 95q85 0 120 -66t35 -185v-33l-273 1q-1 -115 26 -167t93 -52q76 0 97 92h51zM162 33q54 0 90 48.5t36 132.5v37q-91 0 -124 -4.5t-54 -19.5q-40 -28 -40 -89q0 -105 92 -105zM375 788h78l-104 -179h-44z" />
    <glyph glyph-name="Oslashacute" unicode="&#x1fe;" 
d="M320 733q-103 0 -153.5 -83.5t-50.5 -269.5q0 -150 29 -231l332 506q-46 78 -157 78zM320 27q105 0 154.5 83.5t49.5 269.5q0 152 -27 232l-332 -505q47 -80 155 -80zM581 380q0 -396 -262 -396q-123 0 -184 78l-57 -87h-48l81 123q-52 95 -52 282q0 396 262 396
q121 0 184 -79l63 96h48l-87 -133q52 -95 52 -280zM367 960h75l-92 -133h-45z" />
    <glyph glyph-name="oslashacute" unicode="&#x1ff;" 
d="M320 492q-88 0 -134.5 -62t-46.5 -169q0 -97 36 -155l267 339q-47 47 -122 47zM320 30q88 0 134.5 62t46.5 169q0 91 -33 150l-267 -338q44 -43 119 -43zM554 261q0 -125 -61 -199.5t-173 -74.5q-88 0 -147 51l-43 -54h-51l66 83q-59 74 -59 194q0 125 61 199.5t173 74.5
q90 0 150 -54l43 54h53l-67 -85q55 -73 55 -189zM369 788h78l-104 -179h-44z" />
    <glyph glyph-name="Scommaaccent" unicode="&#x218;" 
d="M503 562q-15 169 -176 169q-80 0 -129.5 -39.5t-49.5 -116.5q0 -67 32 -98.5t103 -48.5l114 -27q95 -22 135.5 -67t40.5 -130q0 -96 -67.5 -157t-189.5 -61q-114 0 -173.5 61t-72.5 162h49q24 -180 204 -180q98 0 147 49.5t49 121.5q0 65 -29.5 99t-104.5 52l-115 27
q-94 21 -134.5 68.5t-40.5 128.5q0 94 65 147.5t167 53.5q107 0 164 -56t64 -158h-52zM285 -53h84l-80 -149h-44z" />
    <glyph glyph-name="scommaaccent" unicode="&#x219;" 
d="M461 401q-12 47 -45 69.5t-97 22.5t-101 -26.5t-37 -77.5q0 -47 27 -68t84 -27l87 -10q81 -9 116 -43.5t35 -94.5q0 -72 -55.5 -115.5t-158.5 -43.5q-195 0 -210 158h51q8 -60 47 -88t112 -28q74 0 118.5 29.5t44.5 85.5q0 42 -23.5 64t-81.5 29l-95 11q-73 9 -111 41.5
t-38 97.5t49 106.5t141 41.5q83 0 132.5 -35t60.5 -99h-52zM280 -51h84l-80 -149h-44z" />
    <glyph glyph-name="uni021A" unicode="&#x21a;" 
d="M599 719h-252v-719h-54v719h-252v46h558v-46zM277 -53h84l-80 -149h-44z" />
    <glyph glyph-name="uni021B" unicode="&#x21b;" 
d="M258 479h-194v43h132q41 0 52.5 13t11.5 56v91h51v-160h229v-43h-229v-348q0 -97 109 -97q68 0 120 17v-45q-56 -18 -121 -18q-88 0 -124.5 37t-36.5 110v344zM355 -53h84l-80 -149h-44z" />
    <glyph glyph-name="uni0237" unicode="&#x237;" 
d="M268 -195q-55 0 -114 21v48q66 -23 110 -23q51 0 72.5 25t21.5 91v510h-172v45h225v-568q0 -149 -143 -149z" />
    <glyph glyph-name="circumflex" unicode="&#x2c6;" 
d="M464 609h-52l-93 136h-5l-91 -136h-47l106 179h71z" />
    <glyph glyph-name="caron" unicode="&#x2c7;" 
d="M176 788h52l93 -136h5l91 136h47l-106 -179h-71z" />
    <glyph glyph-name="breve" unicode="&#x2d8;" 
d="M224 783q0 -116 99 -116q101 0 101 116h44q0 -83 -40.5 -123.5t-107.5 -40.5q-66 0 -105 40.5t-39 123.5h48z" />
    <glyph glyph-name="dotaccent" unicode="&#x2d9;" 
d="M276 739h92v-99h-92v99z" />
    <glyph glyph-name="ring" unicode="&#x2da;" 
d="M200 715q0 54 33 88t87 34q56 0 88.5 -33.5t32.5 -88.5q0 -53 -33.5 -86.5t-87.5 -33.5t-87 33t-33 87zM320 633q35 0 56 22.5t21 59.5q0 38 -20 61.5t-57 23.5q-35 0 -56 -24t-21 -61t20.5 -59.5t56.5 -22.5z" />
    <glyph glyph-name="ogonek" unicode="&#x2db;" 
d="M401 0q-89 -35 -89 -88q0 -32 21 -44.5t68 -13.5v-42h-13q-127 0 -127 92q0 77 128 117z" />
    <glyph glyph-name="tilde" unicode="&#x2dc;" 
d="M145 627q0 54 25 92.5t75 38.5q29 0 57.5 -20t52.5 -40.5t43 -20.5q30 0 41 19t12 61h45q0 -55 -24.5 -92t-74.5 -37q-30 0 -58.5 20.5t-52.5 41t-43 20.5q-28 0 -40 -21t-13 -62h-45z" />
    <glyph glyph-name="hungarumlaut" unicode="&#x2dd;" 
d="M392 788h71l-89 -179h-44zM242 788h71l-89 -179h-44z" />
    <glyph glyph-name="Wgrave" unicode="&#x1e80;" 
d="M138 0l-97 765h49l88 -701h4q2 12 3 19l3 18t3 17l101 487h60l100 -488q4 -16 6 -35q0 -3 0.5 -9t1.5 -9h5l86 701h47l-96 -765h-73l-95 469q-3 12 -5.5 31.5t-3.5 24.5q-2 16 -2 23h-6q0 -7 -2 -23q-1 -7 -4 -26t-5 -30l-95 -469h-73zM341 827h-45l-92 133h75z" />
    <glyph glyph-name="wgrave" unicode="&#x1e81;" 
d="M158 0l-118 522h52l88 -414q1 -6 2.5 -17t3.5 -16q2 -10 3 -14h3l10 48l89 413h62l88 -413q2 -5 3.5 -15t2.5 -15l3 -18h3l9 48l88 413h50l-118 -522h-63l-82 380l-11 53q-2 8 -4 24h-3l-5 -25q-2 -12 -11 -52l-80 -380h-65zM299 609l-104 179h78l70 -179h-44z" />
    <glyph glyph-name="Wacute" unicode="&#x1e82;" 
d="M138 0l-97 765h49l88 -701h4q2 12 3 19l3 18t3 17l101 487h60l100 -488q4 -16 6 -35q0 -3 0.5 -9t1.5 -9h5l86 701h47l-96 -765h-73l-95 469q-3 12 -5.5 31.5t-3.5 24.5q-2 16 -2 23h-6q0 -7 -2 -23q-1 -7 -4 -26t-5 -30l-95 -469h-73zM373 960h75l-92 -133h-45z" />
    <glyph glyph-name="wacute" unicode="&#x1e83;" 
d="M158 0l-118 522h52l88 -414q1 -6 2.5 -17t3.5 -16q2 -10 3 -14h3l10 48l89 413h62l88 -413q2 -5 3.5 -15t2.5 -15l3 -18h3l9 48l88 413h50l-118 -522h-63l-82 380l-11 53q-2 8 -4 24h-3l-5 -25q-2 -12 -11 -52l-80 -380h-65zM372 788h78l-104 -179h-44z" />
    <glyph glyph-name="Wdieresis" unicode="&#x1e84;" 
d="M138 0l-97 765h49l88 -701h4q2 12 3 19l3 18t3 17l101 487h60l100 -488q4 -16 6 -35q0 -3 0.5 -9t1.5 -9h5l86 701h47l-96 -765h-73l-95 469q-3 12 -5.5 31.5t-3.5 24.5q-2 16 -2 23h-6q0 -7 -2 -23q-1 -7 -4 -26t-5 -30l-95 -469h-73zM370 939h92v-99h-92v99zM182 939
h92v-99h-92v99z" />
    <glyph glyph-name="wdieresis" unicode="&#x1e85;" 
d="M158 0l-118 522h52l88 -414q1 -6 2.5 -17t3.5 -16q2 -10 3 -14h3l10 48l89 413h62l88 -413q2 -5 3.5 -15t2.5 -15l3 -18h3l9 48l88 413h50l-118 -522h-63l-82 380l-11 53q-2 8 -4 24h-3l-5 -25q-2 -12 -11 -52l-80 -380h-65zM182 739h92v-99h-92v99zM370 640v99h92v-99
h-92z" />
    <glyph glyph-name="Ygrave" unicode="&#x1ef2;" 
d="M294 345l-248 420h61l214 -375h1l215 375h58l-247 -417v-348h-54v345zM350 827h-45l-92 133h75z" />
    <glyph glyph-name="ygrave" unicode="&#x1ef3;" 
d="M96 522h54l147 -383q19 -52 20 -54l5.5 -14t4.5 -14h2q3 9 9 29q10 34 19 53l146 383h53l-223 -571q-32 -84 -70 -117t-103 -33q-29 0 -70 11v45q33 -12 71 -12q47 0 72 23.5t44 73.5l24 57zM311 609l-104 179h78l70 -179h-44z" />
    <glyph glyph-name="uni2009" unicode="&#x2009;" horiz-adv-x="0" 
 />
    <glyph glyph-name="endash" unicode="&#x2013;" 
d="M140 359h360v-46h-360v46z" />
    <glyph glyph-name="emdash" unicode="&#x2014;" 
d="M10 359h620v-46h-620v46z" />
    <glyph glyph-name="quoteleft" unicode="&#x2018;" 
d="M340 765h53l-55 -243h-89z" />
    <glyph glyph-name="quoteright" unicode="&#x2019;" 
d="M304 522h-53l55 243h89z" />
    <glyph glyph-name="quotesinglbase" unicode="&#x201a;" 
d="M261 -131l45 234h89l-81 -234h-53z" />
    <glyph glyph-name="quotedblleft" unicode="&#x201c;" 
d="M418 765h53l-55 -243h-89zM249 765h53l-55 -243h-89z" />
    <glyph glyph-name="quotedblright" unicode="&#x201d;" 
d="M382 522h-53l55 243h89zM213 522h-53l55 243h89z" />
    <glyph glyph-name="quotedblbase" unicode="&#x201e;" 
d="M339 -131l45 234h89l-81 -234h-53zM170 -131l45 234h89l-81 -234h-53z" />
    <glyph glyph-name="dagger" unicode="&#x2020;" 
d="M342 -81h-46v542h-216v41h216v263h46v-263h218v-41h-218v-542z" />
    <glyph glyph-name="daggerdbl" unicode="&#x2021;" 
d="M342 -81h-46v263h-216v41h216v254h-216v41h216v247h46v-247h218v-41h-218v-254h218v-41h-218v-263z" />
    <glyph glyph-name="bullet" unicode="&#x2022;" 
d="M319 196q-49 0 -80 30.5t-31 81.5q0 50 32 81t80 31q51 0 81.5 -31t30.5 -81t-32 -81t-81 -31z" />
    <glyph glyph-name="ellipsis" unicode="&#x2026;" 
d="M274 99h92v-99h-92v99zM488 99h92v-99h-92v99zM60 99h92v-99h-92v99z" />
    <glyph glyph-name="perthousand" unicode="&#x2030;" 
d="M26 611q0 79 31 120t84 41q55 0 85.5 -40.5t30.5 -120.5q0 -79 -31.5 -120.5t-86.5 -41.5q-53 0 -83 41.5t-30 120.5zM140 488q69 0 69 123q0 124 -69 124q-67 0 -67 -124q0 -123 67 -123zM15 312l470 265v-47l-470 -265v47zM506 -7q-53 0 -83 41.5t-30 120.5t31 120
t84 41q55 0 85.5 -40.5t30.5 -120.5q0 -79 -31.5 -120.5t-86.5 -41.5zM237 -7q-53 0 -83 41.5t-30 120.5t31 120t84 41q55 0 85.5 -40.5t30.5 -120.5q0 -79 -31.5 -120.5t-86.5 -41.5zM507 32q69 0 69 123q0 124 -69 124q-67 0 -67 -124q0 -123 67 -123zM238 32q69 0 69 123
q0 124 -69 124q-67 0 -67 -124q0 -123 67 -123z" />
    <glyph glyph-name="uni2032" unicode="&#x2032;" 
d="M296 765h70l-63 -278h-44z" />
    <glyph glyph-name="uni2033" unicode="&#x2033;" 
d="M382 765h70l-63 -278h-44zM211 765h70l-63 -278h-44z" />
    <glyph glyph-name="guilsinglleft" unicode="&#x2039;" 
d="M243 262l188 -205h-67l-188 203l188 204h63z" />
    <glyph glyph-name="guilsinglright" unicode="&#x203a;" 
d="M397 259l-188 205h67l188 -203l-188 -204h-63z" />
    <glyph glyph-name="fraction" unicode="&#x2044;" 
d="M581 780h49l-570 -820h-50z" />
    <glyph glyph-name="Euro" unicode="&#x20ac;" 
d="M588 201q-6 -100 -62.5 -158.5t-150.5 -58.5q-224 0 -253 289h-93v45h89q-1 16 -1 50q0 32 1 48h-89v45h93q15 133 76.5 212t176.5 79q83 0 146 -54t69 -162h-50q-4 73 -47.5 122.5t-117.5 49.5q-176 0 -201 -247h261v-45h-264q-1 -16 -1 -48q0 -33 1 -50h266v-45h-262
q11 -112 59 -179.5t141 -67.5q75 0 116 47.5t47 127.5h50z" />
    <glyph glyph-name="trademark" unicode="&#x2122;" 
d="M256 730h-97v-291h-43v291h-96v35h236v-35zM291 765h63l66 -204q8 -30 11 -45q2 -8 4 -24h3q1 8 5 24q5 22 12 45l63 204h62v-326h-38v281h-6q-1 -5 -5 -19q-2 -6 -6.5 -22.5t-6.5 -25.5l-63 -214h-36l-70 219q-3 8 -5.5 16.5t-4 17t-2.5 11.5q-1 7 -3 17h-6v-281h-37
v326z" />
    <glyph glyph-name="onethird" unicode="&#x2153;" horiz-adv-x="1920" 
d="M1221 780h49l-570 -820h-50zM1456 206v41h53q52 0 78.5 29.5t26.5 73.5q0 46 -30 72.5t-81 26.5q-118 0 -118 -114h-50q0 66 44.5 111t124.5 45q73 0 117.5 -37t44.5 -100q0 -47 -25 -79.5t-68 -44.5v-2q108 -21 108 -127q0 -64 -50.5 -108t-130.5 -44q-89 0 -132.5 45.5
t-46.5 110.5h50q2 -56 36.5 -85t95.5 -29q55 0 90.5 29.5t35.5 79.5q0 53 -32.5 79.5t-83.5 26.5h-57zM169 257v41h141v348h-131v37h43q52 0 75 20q19 18 21 78h42v-483h132v-41h-323z" />
    <glyph glyph-name="twothirds" unicode="&#x2154;" horiz-adv-x="1920" 
d="M1221 780h49l-570 -820h-50zM1456 206v41h53q52 0 78.5 29.5t26.5 73.5q0 46 -30 72.5t-81 26.5q-118 0 -118 -114h-50q0 66 44.5 111t124.5 45q73 0 117.5 -37t44.5 -100q0 -47 -25 -79.5t-68 -44.5v-2q108 -21 108 -127q0 -64 -50.5 -108t-130.5 -44q-89 0 -132.5 45.5
t-46.5 110.5h50q2 -56 36.5 -85t95.5 -29q55 0 90.5 29.5t35.5 79.5q0 53 -32.5 79.5t-83.5 26.5h-57zM148 610q0 83 49.5 130.5t124.5 47.5q81 0 125 -42.5t44 -105.5q0 -51 -23 -90.5t-82 -90.5l-115 -99l-49 -42q-7 -6 -21 -16v-2h299v-43h-368v41l200 174q63 52 85 86.5
t22 79.5q0 49 -31.5 78t-85.5 29q-53 0 -89 -34t-36 -101h-49z" />
    <glyph glyph-name="oneeighth" unicode="&#x215b;" horiz-adv-x="1920" 
d="M1221 780h49l-570 -820h-50zM1331 352q0 60 46 99.5t122 39.5q77 0 122.5 -39t45.5 -100q0 -49 -27 -80t-66 -43q2 0 2 -1t-2 -1q41 -7 75 -40t34 -91q0 -67 -50 -107t-134 -40q-87 0 -135 39t-48 108q0 57 34 90t75 41v2q-39 12 -66.5 43t-27.5 80zM1499 452
q-52 0 -84.5 -25.5t-32.5 -76.5q0 -50 33.5 -76t83.5 -26t83.5 26t33.5 76q0 51 -33.5 76.5t-83.5 25.5zM1499 -12q61 0 96.5 26.5t35.5 82.5q0 55 -37 83t-95 28t-95 -28t-37 -83q0 -56 36 -82.5t96 -26.5zM169 257v41h141v348h-131v37h43q52 0 75 20q19 18 21 78h42v-483
h132v-41h-323z" />
    <glyph glyph-name="threeeighths" unicode="&#x215c;" horiz-adv-x="1920" 
d="M1221 780h49l-570 -820h-50zM1331 352q0 60 46 99.5t122 39.5q77 0 122.5 -39t45.5 -100q0 -49 -27 -80t-66 -43q2 0 2 -1t-2 -1q41 -7 75 -40t34 -91q0 -67 -50 -107t-134 -40q-87 0 -135 39t-48 108q0 57 34 90t75 41v2q-39 12 -66.5 43t-27.5 80zM1499 452
q-52 0 -84.5 -25.5t-32.5 -76.5q0 -50 33.5 -76t83.5 -26t83.5 26t33.5 76q0 51 -33.5 76.5t-83.5 25.5zM1499 -12q61 0 96.5 26.5t35.5 82.5q0 55 -37 83t-95 28t-95 -28t-37 -83q0 -56 36 -82.5t96 -26.5zM276 503v41h53q52 0 78.5 29.5t26.5 73.5q0 46 -30 72.5t-81 26.5
q-118 0 -118 -114h-50q0 66 44.5 111t124.5 45q73 0 117.5 -37t44.5 -100q0 -47 -25 -79.5t-68 -44.5v-2q108 -21 108 -127q0 -64 -50.5 -108t-130.5 -44q-89 0 -132.5 45.5t-46.5 110.5h50q2 -56 36.5 -85t95.5 -29q55 0 90.5 29.5t35.5 79.5q0 53 -32.5 79.5t-83.5 26.5
h-57z" />
    <glyph glyph-name="fiveeighths" unicode="&#x215d;" horiz-adv-x="1920" 
d="M1221 780h49l-570 -820h-50zM1331 352q0 60 46 99.5t122 39.5q77 0 122.5 -39t45.5 -100q0 -49 -27 -80t-66 -43q2 0 2 -1t-2 -1q41 -7 75 -40t34 -91q0 -67 -50 -107t-134 -40q-87 0 -135 39t-48 108q0 57 34 90t75 41v2q-39 12 -66.5 43t-27.5 80zM1499 452
q-52 0 -84.5 -25.5t-32.5 -76.5q0 -50 33.5 -76t83.5 -26t83.5 26t33.5 76q0 51 -33.5 76.5t-83.5 25.5zM1499 -12q61 0 96.5 26.5t35.5 82.5q0 55 -37 83t-95 28t-95 -28t-37 -83q0 -56 36 -82.5t96 -26.5zM449 424q0 66 -35.5 99.5t-90.5 33.5q-79 0 -117 -51h-43l15 275
h298v-44h-258l-10 -186h1q44 48 123 48q69 0 118.5 -44t49.5 -129q0 -84 -51.5 -131.5t-134.5 -47.5t-128 44.5t-47 106.5h49q6 -55 39.5 -82.5t87.5 -27.5t94 33t40 103z" />
    <glyph glyph-name="seveneighths" unicode="&#x215e;" horiz-adv-x="1920" 
d="M1201 780h49l-570 -820h-50zM1331 352q0 60 46 99.5t122 39.5q77 0 122.5 -39t45.5 -100q0 -49 -27 -80t-66 -43q2 0 2 -1t-2 -1q41 -7 75 -40t34 -91q0 -67 -50 -107t-134 -40q-87 0 -135 39t-48 108q0 57 34 90t75 41v2q-39 12 -66.5 43t-27.5 80zM1499 452
q-52 0 -84.5 -25.5t-32.5 -76.5q0 -50 33.5 -76t83.5 -26t83.5 26t33.5 76q0 51 -33.5 76.5t-83.5 25.5zM1499 -12q61 0 96.5 26.5t35.5 82.5q0 55 -37 83t-95 28t-95 -28t-37 -83q0 -56 36 -82.5t96 -26.5zM449 737h-311v44h365v-32l-250 -491h-50z" />
    <glyph glyph-name="minus" unicode="&#x2212;" 
d="M94 380h452v-45h-452v45z" />
    <glyph glyph-name="approxequal" unicode="&#x2248;" 
d="M98 401q3 49 32.5 80.5t79.5 31.5q40 0 114 -33t107 -33q26 0 44.5 17t20.5 49h45q-3 -49 -32.5 -80t-79.5 -31q-43 0 -115.5 33.5t-105.5 33.5q-26 0 -44.5 -17t-20.5 -51h-45zM208 289q-26 0 -44.5 -17.5t-20.5 -49.5h-45q3 49 32.5 80.5t79.5 31.5q43 0 115.5 -33.5
t105.5 -33.5q27 0 45 17t20 50h45q-3 -49 -32.5 -80t-79.5 -31q-39 0 -113 33t-108 33z" />
    <glyph glyph-name="notequal" unicode="&#x2260;" 
d="M218 123h-44l63 120h-143v46h167l72 137h-239v46h263l63 121h44l-63 -121h145v-46h-169l-72 -137h241v-46h-265z" />
    <glyph glyph-name="lessequal" unicode="&#x2264;" 
d="M92 329v45l452 197v-53l-395 -166l395 -167v-53zM92 0v45h452v-45h-452z" />
    <glyph glyph-name="greaterequal" unicode="&#x2265;" 
d="M547 374v-45l-452 -197v53l395 166l-395 167v53zM95 0v45h452v-45h-452z" />
    <glyph glyph-name="uni24C5" unicode="&#x24c5;" 
d="M50 422q0 164 65 259.5t205 95.5t205 -96t65 -259v-82q0 -166 -65 -261t-205 -95q-270 0 -270 356v82zM320 22q224 0 224 317v86q0 144 -54 228t-170 84q-117 0 -170.5 -83.5t-53.5 -228.5v-86q0 -317 224 -317zM261 338v-177h-48v438h118q137 0 137 -130
q0 -65 -35.5 -98t-100.5 -33h-71zM328 382q91 0 91 87q0 86 -85 86h-73v-173h67z" />
    <glyph glyph-name="fi" unicode="&#xfb01;" horiz-adv-x="1280" 
d="M335 0h-53v479h-197v43h197v111q0 74 42 112t118 38q62 0 111 -15v-45q-53 15 -111 15q-57 0 -82 -24t-25 -85v-107h218v-43h-218v-479zM918 739h92v-99h-92v99zM746 0v43h198v435h-172v44h225v-479h203v-43h-454z" />
    <glyph glyph-name="fl" unicode="&#xfb02;" horiz-adv-x="1280" 
d="M335 0h-53v479h-197v43h197v111q0 74 42 112t118 38q62 0 111 -15v-45q-53 15 -111 15q-57 0 -82 -24t-25 -85v-107h218v-43h-218v-479zM732 0v43h201v700h-164v45h217v-745h203v-43h-457z" />
    <glyph glyph-name="exclamdown.uc" 
d="M358 -23h-56l7 580h42zM376 765v-99h-92v99h92z" />
    <glyph glyph-name="hyphen.uc" 
d="M171 407h298v-51h-298v51z" />
    <glyph glyph-name="endash.uc" 
d="M140 404h360v-46h-360v46z" />
    <glyph glyph-name="emdash.uc" 
d="M10 404h620v-46h-620v46z" />
    <glyph glyph-name="guilsinglleft.uc" 
d="M243 322l188 -205h-67l-188 203l188 204h63z" />
    <glyph glyph-name="guilsinglright.uc" 
d="M397 318l-188 205h67l188 -203l-188 -204h-63z" />
    <glyph glyph-name="guillemotleft.uc" 
d="M502 524l-137 -204l138 -203h-57l-136 203l135 204h57zM314 524l-135 -204l136 -203h-55l-138 203l137 204h55z" />
    <glyph glyph-name="guillemotright.uc" 
d="M138 117l137 204l-138 203h57l136 -203l-135 -204h-57zM326 117l135 204l-136 203h55l138 -203l-137 -204h-55z" />
    <glyph glyph-name="parenleft.uc" 
d="M430 -85q-99 71 -161.5 193.5t-62.5 265.5q0 144 62 266t162 193h65q-112 -86 -173.5 -196t-61.5 -263t61.5 -263t173.5 -196h-65z" />
    <glyph glyph-name="parenright.uc" 
d="M210 833q100 -73 162 -194.5t62 -264.5q0 -144 -62 -266t-162 -193h-65q112 86 173.5 196t61.5 263t-61.5 263t-173.5 196h65z" />
    <glyph glyph-name="grave.uc" 
d="M374 827h-45l-92 133h75z" />
    <glyph glyph-name="bracketleft.uc" 
d="M224 833h239v-41h-187v-836h187v-41h-239v918z" />
    <glyph glyph-name="bracketright.uc" 
d="M416 -85h-239v41h187v836h-187v41h239v-918z" />
    <glyph glyph-name="braceleft.uc" 
d="M150 351v48h38q48 0 68 18.5t20 63.5v217q0 135 188 135h20v-44q-52 0 -83.5 -6t-47.5 -22.5t-20.5 -35.5t-4.5 -54v-177q0 -105 -78 -118v-4q78 -10 78 -115v-179q0 -35 4.5 -54t20.5 -35.5t47.5 -22.5t83.5 -6v-45h-20q-99 0 -143.5 34.5t-44.5 101.5v218
q0 45 -20 63.5t-68 18.5h-38z" />
    <glyph glyph-name="braceright.uc" 
d="M490 397v-48h-38q-48 0 -68 -18.5t-20 -63.5v-222q0 -130 -188 -130h-20v44q52 0 83.5 6t47.5 22.5t20.5 35.5t4.5 54v177q0 105 78 118v4q-78 10 -78 115v179q0 35 -4.5 54t-20.5 35.5t-47.5 22.5t-83.5 6v45h20q188 0 188 -136v-218q0 -45 20 -63.5t68 -18.5h38z" />
    <glyph glyph-name="slash.uc" 
d="M537 838h52l-484 -918h-52z" />
    <glyph glyph-name="backslash.uc" 
d="M49 838h54l482 -918h-54z" />
    <glyph glyph-name="bar.uc" 
d="M295 838h49v-918h-49v918z" />
    <glyph glyph-name="acute.uc" 
d="M308 960h75l-92 -133h-45z" />
    <glyph glyph-name="at.uc" 
d="M349 -18q-147 0 -217 91.5t-70 278.5v66q0 147 44 239q63 131 228 131q127 0 185 -80t58 -216v-302h-44v71h-7q-43 -82 -138 -82q-69 0 -114.5 48.5t-45.5 151.5q0 98 44.5 150.5t123.5 52.5q84 0 128 -70h6q-3 50 -13 88t-30.5 73t-59.5 53.5t-95 18.5q-130 0 -178 -100
q-44 -87 -44 -230v-41q0 -82 10.5 -141.5t37 -108.5t76 -74t121.5 -25q49 0 114 19v-43q-56 -19 -120 -19zM394 226q57 0 94.5 36.5t37.5 92.5v42q0 63 -35.5 101t-87.5 38q-120 0 -120 -154q0 -156 111 -156z" />
    <glyph glyph-name="macron.uc" 
d="M185 911h270v-49h-270v49z" />
    <glyph glyph-name="circumflex.uc" 
d="M462 827h-55l-90 84h-1l-88 -84h-50l110 133h59z" />
    <glyph glyph-name="caron.uc" 
d="M178 960h55l90 -84h1l88 84h50l-110 -133h-59z" />
    <glyph glyph-name="breve.uc" 
d="M227 970q11 -92 96 -92q87 0 98 92h46q-6 -71 -46 -105.5t-101 -34.5t-99 34.5t-44 105.5h50z" />
    <glyph glyph-name="caron.alt" 
d="M294 788h78l-61 -199h-44z" />
    <glyph glyph-name="dotaccent.uc" 
d="M274 939h92v-99h-92v99z" />
    <glyph glyph-name="ring.uc" 
d="M320 800q-54 0 -87 33t-33 87t33 88t87 34q56 0 88.5 -33.5t32.5 -88.5q0 -53 -33.5 -86.5t-87.5 -33.5zM320 1005q-35 0 -56 -24t-21 -61t20.5 -59.5t56.5 -22.5q35 0 56 22.5t21 59.5q0 38 -20 61.5t-57 23.5z" />
    <glyph glyph-name="tilde.uc" 
d="M144 827q0 58 24 96t77 38q23 0 46 -13t38.5 -28.5t34.5 -28.5t35 -13q29 0 39 20.5t13 63.5h46q0 -57 -24 -95.5t-76 -38.5q-30 0 -58.5 21t-53 41.5t-43.5 20.5q-29 0 -39 -20t-13 -64h-46z" />
    <glyph glyph-name="hungarumlaut.uc" 
d="M379 970h68l-71 -143h-38zM233 970h68l-71 -143h-38z" />
    <glyph glyph-name="idotaccent" 
d="M277 739h92v-99h-92v99zM105 0v43h198v435h-172v44h225v-479h203v-43h-454z" />
    <glyph glyph-name="questiondown.uc" 
d="M146 159q0 -71 44.5 -109t125.5 -38q82 0 131.5 53.5t47.5 145.5h49q4 -113 -62 -178t-170 -65q-108 0 -163.5 53.5t-55.5 131.5q0 68 25.5 110.5t81.5 93.5l32 30q43 41 53 62t10 81v27h48v-26q0 -76 -13 -104.5t-68 -75.5l-42 -37q-74 -64 -74 -155zM364 765v-99h-92
v99h92z" />
    <glyph glyph-name="eight.den" 
d="M151 352q0 60 46 99.5t122 39.5q77 0 122.5 -39t45.5 -100q0 -49 -27 -80t-66 -43q2 0 2 -1t-2 -1q41 -7 75 -40t34 -91q0 -67 -50 -107t-134 -40q-87 0 -135 39t-48 108q0 57 34 90t75 41v2q-39 12 -66.5 43t-27.5 80zM319 452q-52 0 -84.5 -25.5t-32.5 -76.5
q0 -50 33.5 -76t83.5 -26t83.5 26t33.5 76q0 51 -33.5 76.5t-83.5 25.5zM319 -12q61 0 96.5 26.5t35.5 82.5q0 55 -37 83t-95 28t-95 -28t-37 -83q0 -56 36 -82.5t96 -26.5z" />
    <glyph glyph-name="five.den" 
d="M449 126q0 66 -35.5 99.5t-90.5 33.5q-79 0 -117 -51h-43l15 275h298v-44h-258l-10 -186h1q44 48 123 48q69 0 118.5 -44t49.5 -129q0 -84 -51.5 -131.5t-134.5 -47.5t-128 44.5t-47 106.5h49q6 -55 39.5 -82.5t87.5 -27.5t94 33t40 103z" />
    <glyph glyph-name="four.den" 
d="M385 134v292h-2q-1 -2 -4.5 -8.5l-5.5 -10.5t-7 -12l-10 -16t-10 -15l-168 -230h207zM433 91v-131h-49v131h-257v40l255 352h51v-349h88v-43h-88z" />
    <glyph glyph-name="nine.den" 
d="M313 450q-50 0 -87.5 -33t-37.5 -97q0 -62 34.5 -96.5t90.5 -34.5t91.5 34.5t35.5 95.5t-36 96t-91 35zM193 73q15 -83 112 -83q78 0 110.5 56.5t34.5 188.5l-3 -2q-41 -85 -139 -85q-73 0 -121.5 43.5t-48.5 126.5q0 75 49 123.5t127 48.5q87 0 135 -59t48 -181
q0 -161 -47.5 -231t-143.5 -70q-70 0 -112.5 32.5t-49.5 91.5h49z" />
    <glyph glyph-name="one.den" 
d="M169 -40v41h141v348h-131v37h43q52 0 75 20q19 18 21 78h42v-483h132v-41h-323z" />
    <glyph glyph-name="seven.den" 
d="M449 439h-311v44h365v-32l-250 -491h-50z" />
    <glyph glyph-name="six.den" 
d="M449 370q-22 80 -110 80q-144 0 -149 -238h2q19 40 56.5 64.5t89.5 24.5q71 0 120.5 -44.5t49.5 -128.5q0 -77 -49 -128t-131 -51q-85 0 -136 58.5t-51 188.5q0 149 52.5 222t147.5 73q70 0 111 -37.5t45 -83.5h-48zM328 -12q53 0 91.5 36.5t38.5 99.5q0 64 -36 100
t-94 36t-93.5 -35t-35.5 -95q0 -65 36.5 -103.5t92.5 -38.5z" />
    <glyph glyph-name="three.den" 
d="M276 206v41h53q52 0 78.5 29.5t26.5 73.5q0 46 -30 72.5t-81 26.5q-118 0 -118 -114h-50q0 66 44.5 111t124.5 45q73 0 117.5 -37t44.5 -100q0 -47 -25 -79.5t-68 -44.5v-2q108 -21 108 -127q0 -64 -50.5 -108t-130.5 -44q-89 0 -132.5 45.5t-46.5 110.5h50
q2 -56 36.5 -85t95.5 -29q55 0 90.5 29.5t35.5 79.5q0 53 -32.5 79.5t-83.5 26.5h-57z" />
    <glyph glyph-name="two.den" 
d="M148 313q0 83 49.5 130.5t124.5 47.5q81 0 125 -42.5t44 -105.5q0 -51 -23 -90.5t-82 -90.5l-115 -99l-49 -42q-7 -6 -21 -16v-2h299v-43h-368v41l200 174q63 52 85 86.5t22 79.5q0 49 -31.5 78t-85.5 29q-53 0 -89 -34t-36 -101h-49z" />
    <glyph glyph-name="zero.den" 
d="M121 220q0 134 53 202.5t146 68.5t146 -68t53 -203t-52 -203t-147 -68t-147 68t-52 203zM320 -11q70 0 108 58t38 173q0 230 -146 230t-146 -230q0 -116 38 -173.5t108 -57.5z" />
    <glyph glyph-name="zero.num" 
d="M121 517q0 134 53 202.5t146 68.5t146 -68t53 -203t-52 -203t-147 -68t-147 68t-52 203zM320 286q70 0 108 58t38 173q0 230 -146 230t-146 -230q0 -116 38 -173.5t108 -57.5z" />
    <glyph glyph-name="one.num" 
d="M169 257v41h141v348h-131v37h43q52 0 75 20q19 18 21 78h42v-483h132v-41h-323z" />
    <glyph glyph-name="two.num" 
d="M148 610q0 83 49.5 130.5t124.5 47.5q81 0 125 -42.5t44 -105.5q0 -51 -23 -90.5t-82 -90.5l-115 -99l-49 -42q-7 -6 -21 -16v-2h299v-43h-368v41l200 174q63 52 85 86.5t22 79.5q0 49 -31.5 78t-85.5 29q-53 0 -89 -34t-36 -101h-49z" />
    <glyph glyph-name="three.num" 
d="M276 503v41h53q52 0 78.5 29.5t26.5 73.5q0 46 -30 72.5t-81 26.5q-118 0 -118 -114h-50q0 66 44.5 111t124.5 45q73 0 117.5 -37t44.5 -100q0 -47 -25 -79.5t-68 -44.5v-2q108 -21 108 -127q0 -64 -50.5 -108t-130.5 -44q-89 0 -132.5 45.5t-46.5 110.5h50
q2 -56 36.5 -85t95.5 -29q55 0 90.5 29.5t35.5 79.5q0 53 -32.5 79.5t-83.5 26.5h-57z" />
    <glyph glyph-name="four.num" 
d="M385 432v292h-2q-1 -2 -4.5 -8.5l-5.5 -10.5t-7 -12l-10 -16t-10 -15l-168 -230h207zM433 389v-131h-49v131h-257v40l255 352h51v-349h88v-43h-88z" />
    <glyph glyph-name="five.num" 
d="M449 424q0 66 -35.5 99.5t-90.5 33.5q-79 0 -117 -51h-43l15 275h298v-44h-258l-10 -186h1q44 48 123 48q69 0 118.5 -44t49.5 -129q0 -84 -51.5 -131.5t-134.5 -47.5t-128 44.5t-47 106.5h49q6 -55 39.5 -82.5t87.5 -27.5t94 33t40 103z" />
    <glyph glyph-name="six.num" 
d="M449 667q-22 80 -110 80q-144 0 -149 -238h2q19 40 56.5 64.5t89.5 24.5q71 0 120.5 -44.5t49.5 -128.5q0 -77 -49 -128t-131 -51q-85 0 -136 58.5t-51 188.5q0 149 52.5 222t147.5 73q70 0 111 -37.5t45 -83.5h-48zM328 285q53 0 91.5 36.5t38.5 99.5q0 65 -36 100.5
t-94 35.5t-93.5 -35t-35.5 -95q0 -65 36.5 -103.5t92.5 -38.5z" />
    <glyph glyph-name="seven.num" 
d="M449 737h-311v44h365v-32l-250 -491h-50z" />
    <glyph glyph-name="eight.num" 
d="M151 649q0 60 46 99.5t122 39.5q77 0 122.5 -39t45.5 -100q0 -49 -27 -80t-66 -43q2 0 2 -1t-2 -1q41 -7 75 -40t34 -91q0 -67 -50 -107t-134 -40q-87 0 -135 39t-48 108q0 57 34 90t75 41v2q-39 12 -66.5 43t-27.5 80zM319 749q-52 0 -84.5 -25.5t-32.5 -76.5
q0 -50 33.5 -76t83.5 -26t83.5 26t33.5 76q0 51 -33.5 76.5t-83.5 25.5zM319 285q61 0 96.5 26.5t35.5 82.5q0 55 -37 83t-95 28t-95 -28t-37 -83q0 -56 36 -82.5t96 -26.5z" />
    <glyph glyph-name="nine.num" 
d="M313 747q-50 0 -87.5 -33t-37.5 -97q0 -62 34.5 -96.5t90.5 -34.5t91.5 34.5t35.5 95.5t-36 96t-91 35zM193 370q15 -83 112 -83q78 0 110.5 56.5t34.5 188.5l-3 -2q-41 -85 -139 -85q-73 0 -121.5 43.5t-48.5 126.5q0 75 49 123.5t127 48.5q87 0 135 -59t48 -181
q0 -161 -47.5 -231t-143.5 -70q-70 0 -112.5 32.5t-49.5 91.5h49z" />
    <glyph glyph-name="minus.num" 
d="M152 531h337v-43h-337v43z" />
    <glyph glyph-name="plus.num" 
d="M341 350h-44v138h-145v42h145v138h44v-138h146v-42h-146v-138z" />
    <glyph glyph-name="minus.den" 
d="M152 234h337v-43h-337v43z" />
    <glyph glyph-name="plus.den" 
d="M341 53h-44v138h-145v42h145v138h44v-138h146v-42h-146v-138z" />
    <glyph glyph-name="eight.sub" 
d="M151 313q0 60 46 99.5t122 39.5q77 0 122.5 -39t45.5 -100q0 -49 -27 -80t-66 -43q2 0 2 -1t-2 -1q41 -7 75 -40t34 -91q0 -67 -50 -107t-134 -40q-87 0 -135 39t-48 108q0 57 34 90t75 41v2q-39 12 -66.5 43t-27.5 80zM319 413q-52 0 -84.5 -25.5t-32.5 -76.5
q0 -50 33.5 -76t83.5 -26t83.5 26t33.5 76q0 51 -33.5 76.5t-83.5 25.5zM319 -51q61 0 96.5 26.5t35.5 82.5q0 55 -37 83t-95 28t-95 -28t-37 -83q0 -56 36 -82.5t96 -26.5z" />
    <glyph glyph-name="eight.sup" 
d="M151 724q0 60 46 99.5t122 39.5q77 0 122.5 -39t45.5 -100q0 -49 -27 -80t-66 -43q2 0 2 -1t-2 -1q41 -7 75 -40t34 -91q0 -67 -50 -107t-134 -40q-87 0 -135 39t-48 108q0 57 34 90t75 41v2q-39 12 -66.5 43t-27.5 80zM319 824q-52 0 -84.5 -25.5t-32.5 -76.5
q0 -50 33.5 -76t83.5 -26t83.5 26t33.5 76q0 51 -33.5 76.5t-83.5 25.5zM319 360q61 0 96.5 26.5t35.5 82.5q0 55 -37 83t-95 28t-95 -28t-37 -83q0 -56 36 -82.5t96 -26.5z" />
    <glyph glyph-name="five.sub" 
d="M449 87q0 66 -35.5 99.5t-90.5 33.5q-79 0 -117 -51h-43l15 275h298v-44h-258l-10 -186h1q44 48 123 48q69 0 118.5 -44t49.5 -129q0 -84 -51.5 -131.5t-134.5 -47.5t-128 44.5t-47 106.5h49q6 -55 39.5 -82.5t87.5 -27.5t94 33t40 103z" />
    <glyph glyph-name="five.sup" 
d="M449 498q0 66 -35.5 99.5t-90.5 33.5q-79 0 -117 -51h-43l15 275h298v-44h-258l-10 -186h1q44 48 123 48q69 0 118.5 -44t49.5 -129q0 -84 -51.5 -131.5t-134.5 -47.5t-128 44.5t-47 106.5h49q6 -55 39.5 -82.5t87.5 -27.5t94 33t40 103z" />
    <glyph glyph-name="four.sub" 
d="M385 95v292h-2q-1 -2 -4.5 -8.5l-5.5 -10.5t-7 -12l-10 -16t-10 -15l-168 -230h207zM433 52v-131h-49v131h-257v40l255 352h51v-349h88v-43h-88z" />
    <glyph glyph-name="four.sup" 
d="M385 506v292h-2q-1 -2 -4.5 -8.5l-5.5 -10.5t-7 -12l-10 -16t-10 -15l-168 -230h207zM433 463v-131h-49v131h-257v40l255 352h51v-349h88v-43h-88z" />
    <glyph glyph-name="minus.sub" 
d="M152 195h337v-43h-337v43z" />
    <glyph glyph-name="minus.sup" 
d="M152 606h337v-43h-337v43z" />
    <glyph glyph-name="nine.sub" 
d="M313 411q-50 0 -87.5 -33t-37.5 -97q0 -62 34.5 -96.5t90.5 -34.5t91.5 34.5t35.5 95.5t-36 96t-91 35zM193 34q15 -83 112 -83q78 0 110.5 56.5t34.5 188.5l-3 -2q-41 -85 -139 -85q-73 0 -121.5 43.5t-48.5 126.5q0 75 49 123.5t127 48.5q87 0 135 -59t48 -181
q0 -161 -47.5 -231t-143.5 -70q-70 0 -112.5 32.5t-49.5 91.5h49z" />
    <glyph glyph-name="nine.sup" 
d="M313 822q-50 0 -87.5 -33t-37.5 -97q0 -62 34.5 -96.5t90.5 -34.5t91.5 34.5t35.5 95.5t-36 96t-91 35zM193 445q15 -83 112 -83q78 0 110.5 56.5t34.5 188.5l-3 -2q-41 -85 -139 -85q-73 0 -121.5 43.5t-48.5 126.5q0 75 49 123.5t127 48.5q87 0 135 -59t48 -181
q0 -161 -47.5 -231t-143.5 -70q-70 0 -112.5 32.5t-49.5 91.5h49z" />
    <glyph glyph-name="one.sub" 
d="M169 -79v41h141v348h-131v37h43q52 0 75 20q19 18 21 78h42v-483h132v-41h-323z" />
    <glyph glyph-name="one.sup" 
d="M169 332v41h141v348h-131v37h43q52 0 75 20q19 18 21 78h42v-483h132v-41h-323z" />
    <glyph glyph-name="plus.sub" 
d="M341 14h-44v138h-145v42h145v138h44v-138h146v-42h-146v-138z" />
    <glyph glyph-name="plus.sup" 
d="M341 425h-44v138h-145v42h145v138h44v-138h146v-42h-146v-138z" />
    <glyph glyph-name="seven.sub" 
d="M449 400h-311v44h365v-32l-250 -491h-50z" />
    <glyph glyph-name="seven.sup" 
d="M449 811h-311v44h365v-32l-250 -491h-50z" />
    <glyph glyph-name="six.sub" 
d="M449 331q-22 80 -110 80q-144 0 -149 -238h2q19 40 56.5 64.5t89.5 24.5q71 0 120.5 -44.5t49.5 -128.5q0 -77 -49 -128t-131 -51q-85 0 -136 58.5t-51 188.5q0 149 52.5 222t147.5 73q70 0 111 -37.5t45 -83.5h-48zM328 -51q53 0 91.5 36.5t38.5 99.5q0 65 -36 100.5
t-94 35.5t-93.5 -35t-35.5 -95q0 -65 36.5 -103.5t92.5 -38.5z" />
    <glyph glyph-name="six.sup" 
d="M449 742q-22 80 -110 80q-144 0 -149 -238h2q19 40 56.5 64.5t89.5 24.5q71 0 120.5 -44.5t49.5 -128.5q0 -77 -49 -128t-131 -51q-85 0 -136 58.5t-51 188.5q0 149 52.5 222t147.5 73q70 0 111 -37.5t45 -83.5h-48zM328 360q53 0 91.5 36.5t38.5 99.5q0 64 -36 100
t-94 36t-93.5 -35t-35.5 -95q0 -65 36.5 -103.5t92.5 -38.5z" />
    <glyph glyph-name="three.sub" 
d="M276 167v41h53q52 0 78.5 29.5t26.5 73.5q0 46 -30 72.5t-81 26.5q-118 0 -118 -114h-50q0 66 44.5 111t124.5 45q73 0 117.5 -37t44.5 -100q0 -47 -25 -79.5t-68 -44.5v-2q108 -21 108 -127q0 -64 -50.5 -108t-130.5 -44q-89 0 -132.5 45.5t-46.5 110.5h50
q2 -56 36.5 -85t95.5 -29q55 0 90.5 29.5t35.5 79.5q0 53 -32.5 79.5t-83.5 26.5h-57z" />
    <glyph glyph-name="three.sup" 
d="M276 578v41h53q52 0 78.5 29.5t26.5 73.5q0 46 -30 72.5t-81 26.5q-118 0 -118 -114h-50q0 66 44.5 111t124.5 45q73 0 117.5 -37t44.5 -100q0 -47 -25 -79.5t-68 -44.5v-2q108 -21 108 -127q0 -64 -50.5 -108t-130.5 -44q-89 0 -132.5 45.5t-46.5 110.5h50
q2 -56 36.5 -85t95.5 -29q55 0 90.5 29.5t35.5 79.5q0 53 -32.5 79.5t-83.5 26.5h-57z" />
    <glyph glyph-name="two.sub" 
d="M148 274q0 83 49.5 130.5t124.5 47.5q81 0 125 -42.5t44 -105.5q0 -51 -23 -90.5t-82 -90.5l-115 -99l-49 -42q-7 -6 -21 -16v-2h299v-43h-368v41l200 174q63 52 85 86.5t22 79.5q0 49 -31.5 78t-85.5 29q-53 0 -89 -34t-36 -101h-49z" />
    <glyph glyph-name="two.sup" 
d="M148 685q0 83 49.5 130.5t124.5 47.5q81 0 125 -42.5t44 -105.5q0 -51 -23 -90.5t-82 -90.5l-115 -99l-49 -42q-7 -6 -21 -16v-2h299v-43h-368v41l200 174q63 52 85 86.5t22 79.5q0 49 -31.5 78t-85.5 29q-53 0 -89 -34t-36 -101h-49z" />
    <glyph glyph-name="zero.sub" 
d="M121 181q0 134 53 202.5t146 68.5t146 -68t53 -203t-52 -203t-147 -68t-147 68t-52 203zM320 -50q70 0 108 58t38 173q0 230 -146 230t-146 -230q0 -116 38 -173.5t108 -57.5z" />
    <glyph glyph-name="zero.sup" 
d="M121 592q0 134 53 202.5t146 68.5t146 -68t53 -203t-52 -203t-147 -68t-147 68t-52 203zM320 361q70 0 108 58t38 173q0 230 -146 230t-146 -230q0 -116 38 -173.5t108 -57.5z" />
    <glyph glyph-name="Q.old" 
d="M447 19q-56 -35 -128 -35q-131 0 -195.5 91.5t-64.5 304.5q0 396 262 396q129 0 194.5 -91.5t65.5 -304.5q0 -236 -98 -332l69 -107l-37 -27zM116 380q0 -186 48 -269.5t156 -83.5q63 0 104 26l-87 133l38 28l84 -130q65 77 65 296q0 193 -47 273t-157 80
q-103 0 -153.5 -83.5t-50.5 -269.5z" />
    <glyph glyph-name="dieresis.uc" 
d="M367 939h92v-99h-92v99zM179 939h92v-99h-92v99z" />
    <glyph glyph-name="space_uni0326" 
d="M290 -53h84l-80 -149h-44z" />
    <glyph glyph-name="commaaccent.alt" 
d="M342 629h-84l83 159h44z" />
    <glyph glyph-name="IJ.alt01" horiz-adv-x="1280" 
d="M347 44h183v-44h-420v44h183v677h-183v44h420v-44h-183v-677zM1118 765v-555q0 -103 -58.5 -159t-151.5 -56q-74 0 -149 20v46q87 -20 147 -20q158 0 158 185v539h54z" />
    <glyph glyph-name="J.alt01" 
d="M478 765v-555q0 -103 -58.5 -159t-151.5 -56q-74 0 -149 20v46q87 -20 147 -20q158 0 158 185v539h54z" />
    <glyph glyph-name="Jcircumflex.alt01" 
d="M478 765v-555q0 -103 -58.5 -159t-151.5 -56q-74 0 -149 20v46q87 -20 147 -20q158 0 158 185v539h54zM585 827h-55l-90 84h-1l-88 -84h-50l110 133h59z" />
    <glyph glyph-name="apple" 
d="M542 647q-32 49 -82.5 80.5t-107.5 38.5q59 -45 90 -119h100zM220 353q31 -73 90 -115v115h-90zM427 371q19 53 21 120h-118v-120h97zM350 234q56 6 108 38.5t84 80.5h-101q-31 -74 -91 -119zM198 647q35 79 90 119q-120 -17 -189 -119h99zM290 234q-63 49 -91 119h-100
q71 -105 191 -119zM421 647q-31 74 -91 116v-116h91zM448 509q-2 65 -21 120h-97v-120h118zM192 491q2 -63 21 -120h97v120h-118zM553 371q28 54 33 120h-118q-2 -66 -20 -120h105zM330 238q58 40 90 115h-90v-115zM606 500q0 -117 -84 -200.5t-202 -83.5t-201.5 83.5
t-83.5 200.5q0 118 83.5 201t201.5 83t202 -83t84 -201zM213 629q-19 -57 -21 -120h118v120h-97zM172 509q1 63 20 120h-104q-30 -54 -33 -120h117zM310 763q-59 -40 -91 -116h91v116zM586 509q-4 66 -33 120h-105q18 -52 20 -120h118zM192 371q-18 54 -20 120h-117
q3 -66 33 -120h104z" />
    <glyph glyph-name="dagger.alt01" 
d="M347 270h-53v297h-143v43h143v155h53v-155h142v-43h-142v-297z" />
    <glyph glyph-name="daggerdbl.alt01" 
d="M347 270h-53v133h-143v43h143v141h-143v43h143v135h53v-135h142v-43h-142v-141h142v-43h-142v-133z" />
    <glyph glyph-name="dotlessj.alt01" 
d="M221 -146q22 -5 51 -5q42 0 61.5 22.5t19.5 71.5v536h-195v43h248v-592q0 -57 -36.5 -91.5t-97.5 -34.5q-25 0 -51 5v45z" />
    <glyph glyph-name="f.alt01" 
d="M333 0h-53v479h-195v43h195v134q0 57 36.5 91.5t97.5 34.5q25 0 51 -5v-43q-15 4 -51 4q-81 0 -81 -95v-121h220v-43h-220v-479z" />
    <glyph glyph-name="f_i" horiz-adv-x="1280" 
d="M335 0h-53v479h-197v43h197v111q0 74 42 112t118 38q62 0 111 -15v-45q-53 15 -111 15q-57 0 -82 -24t-25 -85v-107h218v-43h-218v-479zM918 739h92v-99h-92v99zM746 0v43h198v435h-172v44h225v-479h203v-43h-454z" />
    <glyph glyph-name="f_i.alt01" horiz-adv-x="1280" 
d="M918 739h92v-99h-92v99zM746 0v43h198v435h-172v44h225v-479h203v-43h-454zM333 0h-53v479h-195v43h195v134q0 57 36.5 91.5t97.5 34.5q25 0 51 -5v-43q-15 4 -51 4q-81 0 -81 -95v-121h220v-43h-220v-479z" />
    <glyph glyph-name="f_l" horiz-adv-x="1280" 
d="M335 0h-53v479h-197v43h197v111q0 74 42 112t118 38q62 0 111 -15v-45q-53 15 -111 15q-57 0 -82 -24t-25 -85v-107h218v-43h-218v-479zM732 0v43h201v700h-164v45h217v-745h203v-43h-457z" />
    <glyph glyph-name="f_l.alt01" horiz-adv-x="1280" 
d="M732 0v43h201v700h-164v45h217v-745h203v-43h-457zM333 0h-53v479h-195v43h195v134q0 57 36.5 91.5t97.5 34.5q25 0 51 -5v-43q-15 4 -51 4q-81 0 -81 -95v-121h220v-43h-220v-479z" />
    <glyph glyph-name="j.alt01" 
d="M327 640v99h92v-99h-92zM272 -196q-25 0 -51 5v45q22 -5 51 -5q42 0 61.5 22.5t19.5 71.5v536h-195v43h248v-592q0 -57 -36.5 -91.5t-97.5 -34.5z" />
    <glyph glyph-name="ij.alt01" horiz-adv-x="1280" 
d="M277 739h92v-99h-92v99zM105 0v43h198v435h-172v44h225v-479h203v-43h-454zM967 640v99h92v-99h-92zM912 -196q-25 0 -51 5v45q22 -5 51 -5q42 0 61.5 22.5t19.5 71.5v536h-195v43h248v-592q0 -57 -36.5 -91.5t-97.5 -34.5z" />
    <glyph glyph-name="jcircumflex.alt01" 
d="M221 -146q22 -5 51 -5q42 0 61.5 22.5t19.5 71.5v536h-195v43h248v-592q0 -57 -36.5 -91.5t-97.5 -34.5q-25 0 -51 5v45zM534 609h-52l-93 136h-5l-91 -136h-47l106 179h71z" />
    <glyph glyph-name="t.alt01" 
d="M425 -9q-147 0 -147 147v341h-194v43h132q41 0 52.5 13t11.5 56v91h51v-160h229v-43h-229v-345q0 -97 94 -97q34 0 70 9v-44q-30 -11 -70 -11z" />
    <glyph glyph-name="tbar.alt01" 
d="M495 2q-30 -11 -70 -11q-147 0 -147 147v130h-194v43h194v168h-194v43h132q41 0 52.5 13t11.5 56v91h51v-160h229v-43h-229v-168h229v-43h-229v-134q0 -97 94 -97q34 0 70 9v-44z" />
    <glyph glyph-name="tcaron.alt01" 
d="M441 788h78l-61 -199h-44zM425 -9q-147 0 -147 147v341h-194v43h132q41 0 52.5 13t11.5 56v91h51v-160h229v-43h-229v-345q0 -97 94 -97q34 0 70 9v-44q-30 -11 -70 -11z" />
    <glyph glyph-name="tcommaaccent.alt01" 
d="M425 -9q-147 0 -147 147v341h-194v43h132q41 0 52.5 13t11.5 56v91h51v-160h229v-43h-229v-345q0 -97 94 -97q34 0 70 9v-44q-30 -11 -70 -11zM351 -53h84l-80 -149h-44z" />
    <glyph glyph-name="y.alt01" 
d="M96 522h54l147 -383q17 -46 20 -53q1 -4 4.5 -13l5.5 -14h2l30 80l146 383h51l-223 -571q-32 -84 -70 -117t-103 -33q-18 0 -50 5v45q25 -5 51 -5q47 0 72 23t44 73l24 57z" />
    <glyph glyph-name="yacute.alt01" 
d="M96 522h54l147 -383q17 -46 20 -53q1 -4 4.5 -13l5.5 -14h2l30 80l146 383h51l-223 -571q-32 -84 -70 -117t-103 -33q-18 0 -50 5v45q25 -5 51 -5q47 0 72 23t44 73l24 57zM377 788h78l-104 -179h-44z" />
    <glyph glyph-name="ycircumflex.alt01" 
d="M96 522h54l147 -383q17 -46 20 -53q1 -4 4.5 -13l5.5 -14h2l30 80l146 383h51l-223 -571q-32 -84 -70 -117t-103 -33q-18 0 -50 5v45q25 -5 51 -5q47 0 72 23t44 73l24 57zM479 609h-52l-93 136h-5l-91 -136h-47l106 179h71z" />
    <glyph glyph-name="ydieresis.alt01" 
d="M96 522h54l147 -383q17 -46 20 -53q1 -4 4.5 -13l5.5 -14h2l30 80l146 383h51l-223 -571q-32 -84 -70 -117t-103 -33q-18 0 -50 5v45q25 -5 51 -5q47 0 72 23t44 73l24 57zM192 739h92v-99h-92v99zM380 640v99h92v-99h-92z" />
    <glyph glyph-name="ygrave.alt01" 
d="M96 522h54l147 -383q17 -46 20 -53q1 -4 4.5 -13l5.5 -14h2l30 80l146 383h51l-223 -571q-32 -84 -70 -117t-103 -33q-18 0 -50 5v45q25 -5 51 -5q47 0 72 23t44 73l24 57zM309 609l-104 179h78l70 -179h-44z" />
    <glyph glyph-name="zero.slash" 
d="M66 368q0 193 66.5 288.5t187.5 95.5q120 0 187 -96t67 -288t-67 -288t-187 -96q-121 0 -187.5 95.5t-66.5 288.5zM320 708q-200 0 -200 -340q0 -47 5 -99l383 247q-38 192 -188 192zM320 28q200 0 200 340q0 50 -5 98l-383 -248q39 -190 188 -190z" />
  </font>
</defs>
</svg>
